G04 #@! TF.GenerationSoftware,KiCad,Pcbnew,(5.1.2)-1*
G04 #@! TF.CreationDate,2019-05-28T21:20:31-05:00*
G04 #@! TF.ProjectId,Main_PCB_MXALPSCHOC,4d61696e-5f50-4434-925f-4d58414c5053,rev?*
G04 #@! TF.SameCoordinates,Original*
G04 #@! TF.FileFunction,Legend,Bot*
G04 #@! TF.FilePolarity,Positive*
%FSLAX46Y46*%
G04 Gerber Fmt 4.6, Leading zero omitted, Abs format (unit mm)*
G04 Created by KiCad (PCBNEW (5.1.2)-1) date 2019-05-28 21:20:31*
%MOMM*%
%LPD*%
G04 APERTURE LIST*
%ADD10C,0.184500*%
%ADD11C,0.150000*%
%ADD12C,0.381000*%
%ADD13C,0.100000*%
G04 APERTURE END LIST*
D10*
X43123000Y-57527710D02*
X43123000Y-57879140D01*
X43333860Y-57457430D02*
X42595860Y-57703430D01*
X42595860Y-57703430D02*
X43333860Y-57949430D01*
X42595860Y-58722570D02*
X42736430Y-58722570D01*
X42595860Y-59003710D02*
X42736430Y-59003710D01*
X43333860Y-59320000D02*
X42595860Y-59320000D01*
X42595860Y-59320000D02*
X42595860Y-59601140D01*
X42595860Y-59601140D02*
X42631000Y-59671430D01*
X42631000Y-59671430D02*
X42666140Y-59706570D01*
X42666140Y-59706570D02*
X42736430Y-59741710D01*
X42736430Y-59741710D02*
X42841860Y-59741710D01*
X42841860Y-59741710D02*
X42912140Y-59706570D01*
X42912140Y-59706570D02*
X42947290Y-59671430D01*
X42947290Y-59671430D02*
X42982430Y-59601140D01*
X42982430Y-59601140D02*
X42982430Y-59320000D01*
X43333860Y-60163430D02*
X43298710Y-60093140D01*
X43298710Y-60093140D02*
X43228430Y-60058000D01*
X43228430Y-60058000D02*
X42595860Y-60058000D01*
X43333860Y-60760860D02*
X42947290Y-60760860D01*
X42947290Y-60760860D02*
X42877000Y-60725710D01*
X42877000Y-60725710D02*
X42841860Y-60655430D01*
X42841860Y-60655430D02*
X42841860Y-60514860D01*
X42841860Y-60514860D02*
X42877000Y-60444570D01*
X43298710Y-60760860D02*
X43333860Y-60690570D01*
X43333860Y-60690570D02*
X43333860Y-60514860D01*
X43333860Y-60514860D02*
X43298710Y-60444570D01*
X43298710Y-60444570D02*
X43228430Y-60409430D01*
X43228430Y-60409430D02*
X43158140Y-60409430D01*
X43158140Y-60409430D02*
X43087860Y-60444570D01*
X43087860Y-60444570D02*
X43052710Y-60514860D01*
X43052710Y-60514860D02*
X43052710Y-60690570D01*
X43052710Y-60690570D02*
X43017570Y-60760860D01*
X43333860Y-61112290D02*
X42841860Y-61112290D01*
X42595860Y-61112290D02*
X42631000Y-61077140D01*
X42631000Y-61077140D02*
X42666140Y-61112290D01*
X42666140Y-61112290D02*
X42631000Y-61147430D01*
X42631000Y-61147430D02*
X42595860Y-61112290D01*
X42595860Y-61112290D02*
X42666140Y-61112290D01*
X43333860Y-61780000D02*
X42595860Y-61780000D01*
X43298710Y-61780000D02*
X43333860Y-61709710D01*
X43333860Y-61709710D02*
X43333860Y-61569140D01*
X43333860Y-61569140D02*
X43298710Y-61498860D01*
X43298710Y-61498860D02*
X43263570Y-61463710D01*
X43263570Y-61463710D02*
X43193290Y-61428570D01*
X43193290Y-61428570D02*
X42982430Y-61428570D01*
X42982430Y-61428570D02*
X42912140Y-61463710D01*
X42912140Y-61463710D02*
X42877000Y-61498860D01*
X42877000Y-61498860D02*
X42841860Y-61569140D01*
X42841860Y-61569140D02*
X42841860Y-61709710D01*
X42841860Y-61709710D02*
X42877000Y-61780000D01*
X42595860Y-62096290D02*
X42736430Y-62096290D01*
X42595860Y-62377430D02*
X42736430Y-62377430D01*
X43333860Y-63256000D02*
X42595860Y-63256000D01*
X42841860Y-63607430D02*
X43333860Y-63607430D01*
X42912140Y-63607430D02*
X42877000Y-63642570D01*
X42877000Y-63642570D02*
X42841860Y-63712860D01*
X42841860Y-63712860D02*
X42841860Y-63818290D01*
X42841860Y-63818290D02*
X42877000Y-63888570D01*
X42877000Y-63888570D02*
X42947290Y-63923710D01*
X42947290Y-63923710D02*
X43333860Y-63923710D01*
X43298710Y-64240000D02*
X43333860Y-64310290D01*
X43333860Y-64310290D02*
X43333860Y-64450860D01*
X43333860Y-64450860D02*
X43298710Y-64521140D01*
X43298710Y-64521140D02*
X43228430Y-64556290D01*
X43228430Y-64556290D02*
X43193290Y-64556290D01*
X43193290Y-64556290D02*
X43123000Y-64521140D01*
X43123000Y-64521140D02*
X43087860Y-64450860D01*
X43087860Y-64450860D02*
X43087860Y-64345430D01*
X43087860Y-64345430D02*
X43052710Y-64275140D01*
X43052710Y-64275140D02*
X42982430Y-64240000D01*
X42982430Y-64240000D02*
X42947290Y-64240000D01*
X42947290Y-64240000D02*
X42877000Y-64275140D01*
X42877000Y-64275140D02*
X42841860Y-64345430D01*
X42841860Y-64345430D02*
X42841860Y-64450860D01*
X42841860Y-64450860D02*
X42877000Y-64521140D01*
X42841860Y-64872570D02*
X43579860Y-64872570D01*
X42877000Y-64872570D02*
X42841860Y-64942860D01*
X42841860Y-64942860D02*
X42841860Y-65083430D01*
X42841860Y-65083430D02*
X42877000Y-65153710D01*
X42877000Y-65153710D02*
X42912140Y-65188860D01*
X42912140Y-65188860D02*
X42982430Y-65224000D01*
X42982430Y-65224000D02*
X43193290Y-65224000D01*
X43193290Y-65224000D02*
X43263570Y-65188860D01*
X43263570Y-65188860D02*
X43298710Y-65153710D01*
X43298710Y-65153710D02*
X43333860Y-65083430D01*
X43333860Y-65083430D02*
X43333860Y-64942860D01*
X43333860Y-64942860D02*
X43298710Y-64872570D01*
X43333860Y-65540290D02*
X42841860Y-65540290D01*
X42595860Y-65540290D02*
X42631000Y-65505140D01*
X42631000Y-65505140D02*
X42666140Y-65540290D01*
X42666140Y-65540290D02*
X42631000Y-65575430D01*
X42631000Y-65575430D02*
X42595860Y-65540290D01*
X42595860Y-65540290D02*
X42666140Y-65540290D01*
X43333860Y-65891710D02*
X42841860Y-65891710D01*
X42982430Y-65891710D02*
X42912140Y-65926860D01*
X42912140Y-65926860D02*
X42877000Y-65962000D01*
X42877000Y-65962000D02*
X42841860Y-66032290D01*
X42841860Y-66032290D02*
X42841860Y-66102570D01*
X43298710Y-66629710D02*
X43333860Y-66559430D01*
X43333860Y-66559430D02*
X43333860Y-66418860D01*
X43333860Y-66418860D02*
X43298710Y-66348570D01*
X43298710Y-66348570D02*
X43228430Y-66313430D01*
X43228430Y-66313430D02*
X42947290Y-66313430D01*
X42947290Y-66313430D02*
X42877000Y-66348570D01*
X42877000Y-66348570D02*
X42841860Y-66418860D01*
X42841860Y-66418860D02*
X42841860Y-66559430D01*
X42841860Y-66559430D02*
X42877000Y-66629710D01*
X42877000Y-66629710D02*
X42947290Y-66664860D01*
X42947290Y-66664860D02*
X43017570Y-66664860D01*
X43017570Y-66664860D02*
X43087860Y-66313430D01*
X43333860Y-67297430D02*
X42595860Y-67297430D01*
X43298710Y-67297430D02*
X43333860Y-67227140D01*
X43333860Y-67227140D02*
X43333860Y-67086570D01*
X43333860Y-67086570D02*
X43298710Y-67016290D01*
X43298710Y-67016290D02*
X43263570Y-66981140D01*
X43263570Y-66981140D02*
X43193290Y-66946000D01*
X43193290Y-66946000D02*
X42982430Y-66946000D01*
X42982430Y-66946000D02*
X42912140Y-66981140D01*
X42912140Y-66981140D02*
X42877000Y-67016290D01*
X42877000Y-67016290D02*
X42841860Y-67086570D01*
X42841860Y-67086570D02*
X42841860Y-67227140D01*
X42841860Y-67227140D02*
X42877000Y-67297430D01*
X43333860Y-68597710D02*
X43333860Y-68176000D01*
X43333860Y-68386860D02*
X42595860Y-68386860D01*
X42595860Y-68386860D02*
X42701290Y-68316570D01*
X42701290Y-68316570D02*
X42771570Y-68246290D01*
X42771570Y-68246290D02*
X42806710Y-68176000D01*
X42666140Y-68878860D02*
X42631000Y-68914000D01*
X42631000Y-68914000D02*
X42595860Y-68984290D01*
X42595860Y-68984290D02*
X42595860Y-69160000D01*
X42595860Y-69160000D02*
X42631000Y-69230290D01*
X42631000Y-69230290D02*
X42666140Y-69265430D01*
X42666140Y-69265430D02*
X42736430Y-69300570D01*
X42736430Y-69300570D02*
X42806710Y-69300570D01*
X42806710Y-69300570D02*
X42912140Y-69265430D01*
X42912140Y-69265430D02*
X43333860Y-68843710D01*
X43333860Y-68843710D02*
X43333860Y-69300570D01*
X43052710Y-69616860D02*
X43052710Y-70179140D01*
X43333860Y-70530570D02*
X42595860Y-70530570D01*
X43333860Y-70952290D02*
X42912140Y-70636000D01*
X42595860Y-70952290D02*
X43017570Y-70530570D01*
X43298710Y-71549710D02*
X43333860Y-71479430D01*
X43333860Y-71479430D02*
X43333860Y-71338860D01*
X43333860Y-71338860D02*
X43298710Y-71268570D01*
X43298710Y-71268570D02*
X43228430Y-71233430D01*
X43228430Y-71233430D02*
X42947290Y-71233430D01*
X42947290Y-71233430D02*
X42877000Y-71268570D01*
X42877000Y-71268570D02*
X42841860Y-71338860D01*
X42841860Y-71338860D02*
X42841860Y-71479430D01*
X42841860Y-71479430D02*
X42877000Y-71549710D01*
X42877000Y-71549710D02*
X42947290Y-71584860D01*
X42947290Y-71584860D02*
X43017570Y-71584860D01*
X43017570Y-71584860D02*
X43087860Y-71233430D01*
X42841860Y-71830860D02*
X43333860Y-72006570D01*
X42841860Y-72182290D02*
X43333860Y-72006570D01*
X43333860Y-72006570D02*
X43509570Y-71936290D01*
X43509570Y-71936290D02*
X43544710Y-71901140D01*
X43544710Y-71901140D02*
X43579860Y-71830860D01*
X43333860Y-73025710D02*
X42595860Y-73025710D01*
X42595860Y-73025710D02*
X43123000Y-73271710D01*
X43123000Y-73271710D02*
X42595860Y-73517710D01*
X42595860Y-73517710D02*
X43333860Y-73517710D01*
X43333860Y-74185430D02*
X42947290Y-74185430D01*
X42947290Y-74185430D02*
X42877000Y-74150290D01*
X42877000Y-74150290D02*
X42841860Y-74080000D01*
X42841860Y-74080000D02*
X42841860Y-73939430D01*
X42841860Y-73939430D02*
X42877000Y-73869140D01*
X43298710Y-74185430D02*
X43333860Y-74115140D01*
X43333860Y-74115140D02*
X43333860Y-73939430D01*
X43333860Y-73939430D02*
X43298710Y-73869140D01*
X43298710Y-73869140D02*
X43228430Y-73834000D01*
X43228430Y-73834000D02*
X43158140Y-73834000D01*
X43158140Y-73834000D02*
X43087860Y-73869140D01*
X43087860Y-73869140D02*
X43052710Y-73939430D01*
X43052710Y-73939430D02*
X43052710Y-74115140D01*
X43052710Y-74115140D02*
X43017570Y-74185430D01*
X43298710Y-74853140D02*
X43333860Y-74782860D01*
X43333860Y-74782860D02*
X43333860Y-74642290D01*
X43333860Y-74642290D02*
X43298710Y-74572000D01*
X43298710Y-74572000D02*
X43263570Y-74536860D01*
X43263570Y-74536860D02*
X43193290Y-74501710D01*
X43193290Y-74501710D02*
X42982430Y-74501710D01*
X42982430Y-74501710D02*
X42912140Y-74536860D01*
X42912140Y-74536860D02*
X42877000Y-74572000D01*
X42877000Y-74572000D02*
X42841860Y-74642290D01*
X42841860Y-74642290D02*
X42841860Y-74782860D01*
X42841860Y-74782860D02*
X42877000Y-74853140D01*
X43333860Y-75169430D02*
X42841860Y-75169430D01*
X42982430Y-75169430D02*
X42912140Y-75204570D01*
X42912140Y-75204570D02*
X42877000Y-75239710D01*
X42877000Y-75239710D02*
X42841860Y-75310000D01*
X42841860Y-75310000D02*
X42841860Y-75380290D01*
X43333860Y-75731710D02*
X43298710Y-75661430D01*
X43298710Y-75661430D02*
X43263570Y-75626290D01*
X43263570Y-75626290D02*
X43193290Y-75591140D01*
X43193290Y-75591140D02*
X42982430Y-75591140D01*
X42982430Y-75591140D02*
X42912140Y-75626290D01*
X42912140Y-75626290D02*
X42877000Y-75661430D01*
X42877000Y-75661430D02*
X42841860Y-75731710D01*
X42841860Y-75731710D02*
X42841860Y-75837140D01*
X42841860Y-75837140D02*
X42877000Y-75907430D01*
X42877000Y-75907430D02*
X42912140Y-75942570D01*
X42912140Y-75942570D02*
X42982430Y-75977710D01*
X42982430Y-75977710D02*
X43193290Y-75977710D01*
X43193290Y-75977710D02*
X43263570Y-75942570D01*
X43263570Y-75942570D02*
X43298710Y-75907430D01*
X43298710Y-75907430D02*
X43333860Y-75837140D01*
X43333860Y-75837140D02*
X43333860Y-75731710D01*
X42841860Y-76294000D02*
X43579860Y-76294000D01*
X42877000Y-76294000D02*
X42841860Y-76364290D01*
X42841860Y-76364290D02*
X42841860Y-76504860D01*
X42841860Y-76504860D02*
X42877000Y-76575140D01*
X42877000Y-76575140D02*
X42912140Y-76610290D01*
X42912140Y-76610290D02*
X42982430Y-76645430D01*
X42982430Y-76645430D02*
X43193290Y-76645430D01*
X43193290Y-76645430D02*
X43263570Y-76610290D01*
X43263570Y-76610290D02*
X43298710Y-76575140D01*
X43298710Y-76575140D02*
X43333860Y-76504860D01*
X43333860Y-76504860D02*
X43333860Y-76364290D01*
X43333860Y-76364290D02*
X43298710Y-76294000D01*
X43333860Y-77278000D02*
X42947290Y-77278000D01*
X42947290Y-77278000D02*
X42877000Y-77242860D01*
X42877000Y-77242860D02*
X42841860Y-77172570D01*
X42841860Y-77172570D02*
X42841860Y-77032000D01*
X42841860Y-77032000D02*
X42877000Y-76961710D01*
X43298710Y-77278000D02*
X43333860Y-77207710D01*
X43333860Y-77207710D02*
X43333860Y-77032000D01*
X43333860Y-77032000D02*
X43298710Y-76961710D01*
X43298710Y-76961710D02*
X43228430Y-76926570D01*
X43228430Y-76926570D02*
X43158140Y-76926570D01*
X43158140Y-76926570D02*
X43087860Y-76961710D01*
X43087860Y-76961710D02*
X43052710Y-77032000D01*
X43052710Y-77032000D02*
X43052710Y-77207710D01*
X43052710Y-77207710D02*
X43017570Y-77278000D01*
X43333860Y-77945710D02*
X42595860Y-77945710D01*
X43298710Y-77945710D02*
X43333860Y-77875430D01*
X43333860Y-77875430D02*
X43333860Y-77734860D01*
X43333860Y-77734860D02*
X43298710Y-77664570D01*
X43298710Y-77664570D02*
X43263570Y-77629430D01*
X43263570Y-77629430D02*
X43193290Y-77594290D01*
X43193290Y-77594290D02*
X42982430Y-77594290D01*
X42982430Y-77594290D02*
X42912140Y-77629430D01*
X42912140Y-77629430D02*
X42877000Y-77664570D01*
X42877000Y-77664570D02*
X42841860Y-77734860D01*
X42841860Y-77734860D02*
X42841860Y-77875430D01*
X42841860Y-77875430D02*
X42877000Y-77945710D01*
X43263570Y-78859430D02*
X43298710Y-78894570D01*
X43298710Y-78894570D02*
X43333860Y-78859430D01*
X43333860Y-78859430D02*
X43298710Y-78824290D01*
X43298710Y-78824290D02*
X43263570Y-78859430D01*
X43263570Y-78859430D02*
X43333860Y-78859430D01*
X42877000Y-78859430D02*
X42912140Y-78894570D01*
X42912140Y-78894570D02*
X42947290Y-78859430D01*
X42947290Y-78859430D02*
X42912140Y-78824290D01*
X42912140Y-78824290D02*
X42877000Y-78859430D01*
X42877000Y-78859430D02*
X42947290Y-78859430D01*
X43333860Y-79773140D02*
X42595860Y-79773140D01*
X42595860Y-79773140D02*
X42595860Y-79948860D01*
X42595860Y-79948860D02*
X42631000Y-80054290D01*
X42631000Y-80054290D02*
X42701290Y-80124570D01*
X42701290Y-80124570D02*
X42771570Y-80159710D01*
X42771570Y-80159710D02*
X42912140Y-80194860D01*
X42912140Y-80194860D02*
X43017570Y-80194860D01*
X43017570Y-80194860D02*
X43158140Y-80159710D01*
X43158140Y-80159710D02*
X43228430Y-80124570D01*
X43228430Y-80124570D02*
X43298710Y-80054290D01*
X43298710Y-80054290D02*
X43333860Y-79948860D01*
X43333860Y-79948860D02*
X43333860Y-79773140D01*
X43298710Y-80792290D02*
X43333860Y-80722000D01*
X43333860Y-80722000D02*
X43333860Y-80581430D01*
X43333860Y-80581430D02*
X43298710Y-80511140D01*
X43298710Y-80511140D02*
X43228430Y-80476000D01*
X43228430Y-80476000D02*
X42947290Y-80476000D01*
X42947290Y-80476000D02*
X42877000Y-80511140D01*
X42877000Y-80511140D02*
X42841860Y-80581430D01*
X42841860Y-80581430D02*
X42841860Y-80722000D01*
X42841860Y-80722000D02*
X42877000Y-80792290D01*
X42877000Y-80792290D02*
X42947290Y-80827430D01*
X42947290Y-80827430D02*
X43017570Y-80827430D01*
X43017570Y-80827430D02*
X43087860Y-80476000D01*
X43298710Y-81108570D02*
X43333860Y-81178860D01*
X43333860Y-81178860D02*
X43333860Y-81319430D01*
X43333860Y-81319430D02*
X43298710Y-81389710D01*
X43298710Y-81389710D02*
X43228430Y-81424860D01*
X43228430Y-81424860D02*
X43193290Y-81424860D01*
X43193290Y-81424860D02*
X43123000Y-81389710D01*
X43123000Y-81389710D02*
X43087860Y-81319430D01*
X43087860Y-81319430D02*
X43087860Y-81214000D01*
X43087860Y-81214000D02*
X43052710Y-81143710D01*
X43052710Y-81143710D02*
X42982430Y-81108570D01*
X42982430Y-81108570D02*
X42947290Y-81108570D01*
X42947290Y-81108570D02*
X42877000Y-81143710D01*
X42877000Y-81143710D02*
X42841860Y-81214000D01*
X42841860Y-81214000D02*
X42841860Y-81319430D01*
X42841860Y-81319430D02*
X42877000Y-81389710D01*
X43333860Y-81741140D02*
X42841860Y-81741140D01*
X42595860Y-81741140D02*
X42631000Y-81706000D01*
X42631000Y-81706000D02*
X42666140Y-81741140D01*
X42666140Y-81741140D02*
X42631000Y-81776290D01*
X42631000Y-81776290D02*
X42595860Y-81741140D01*
X42595860Y-81741140D02*
X42666140Y-81741140D01*
X42841860Y-82408860D02*
X43439290Y-82408860D01*
X43439290Y-82408860D02*
X43509570Y-82373710D01*
X43509570Y-82373710D02*
X43544710Y-82338570D01*
X43544710Y-82338570D02*
X43579860Y-82268290D01*
X43579860Y-82268290D02*
X43579860Y-82162860D01*
X43579860Y-82162860D02*
X43544710Y-82092570D01*
X43298710Y-82408860D02*
X43333860Y-82338570D01*
X43333860Y-82338570D02*
X43333860Y-82198000D01*
X43333860Y-82198000D02*
X43298710Y-82127710D01*
X43298710Y-82127710D02*
X43263570Y-82092570D01*
X43263570Y-82092570D02*
X43193290Y-82057430D01*
X43193290Y-82057430D02*
X42982430Y-82057430D01*
X42982430Y-82057430D02*
X42912140Y-82092570D01*
X42912140Y-82092570D02*
X42877000Y-82127710D01*
X42877000Y-82127710D02*
X42841860Y-82198000D01*
X42841860Y-82198000D02*
X42841860Y-82338570D01*
X42841860Y-82338570D02*
X42877000Y-82408860D01*
X42841860Y-82760290D02*
X43333860Y-82760290D01*
X42912140Y-82760290D02*
X42877000Y-82795430D01*
X42877000Y-82795430D02*
X42841860Y-82865710D01*
X42841860Y-82865710D02*
X42841860Y-82971140D01*
X42841860Y-82971140D02*
X42877000Y-83041430D01*
X42877000Y-83041430D02*
X42947290Y-83076570D01*
X42947290Y-83076570D02*
X43333860Y-83076570D01*
X43298710Y-83709140D02*
X43333860Y-83638860D01*
X43333860Y-83638860D02*
X43333860Y-83498290D01*
X43333860Y-83498290D02*
X43298710Y-83428000D01*
X43298710Y-83428000D02*
X43228430Y-83392860D01*
X43228430Y-83392860D02*
X42947290Y-83392860D01*
X42947290Y-83392860D02*
X42877000Y-83428000D01*
X42877000Y-83428000D02*
X42841860Y-83498290D01*
X42841860Y-83498290D02*
X42841860Y-83638860D01*
X42841860Y-83638860D02*
X42877000Y-83709140D01*
X42877000Y-83709140D02*
X42947290Y-83744290D01*
X42947290Y-83744290D02*
X43017570Y-83744290D01*
X43017570Y-83744290D02*
X43087860Y-83392860D01*
X43333860Y-84376860D02*
X42595860Y-84376860D01*
X43298710Y-84376860D02*
X43333860Y-84306570D01*
X43333860Y-84306570D02*
X43333860Y-84166000D01*
X43333860Y-84166000D02*
X43298710Y-84095710D01*
X43298710Y-84095710D02*
X43263570Y-84060570D01*
X43263570Y-84060570D02*
X43193290Y-84025430D01*
X43193290Y-84025430D02*
X42982430Y-84025430D01*
X42982430Y-84025430D02*
X42912140Y-84060570D01*
X42912140Y-84060570D02*
X42877000Y-84095710D01*
X42877000Y-84095710D02*
X42841860Y-84166000D01*
X42841860Y-84166000D02*
X42841860Y-84306570D01*
X42841860Y-84306570D02*
X42877000Y-84376860D01*
X43333860Y-85290570D02*
X42595860Y-85290570D01*
X42877000Y-85290570D02*
X42841860Y-85360860D01*
X42841860Y-85360860D02*
X42841860Y-85501430D01*
X42841860Y-85501430D02*
X42877000Y-85571710D01*
X42877000Y-85571710D02*
X42912140Y-85606860D01*
X42912140Y-85606860D02*
X42982430Y-85642000D01*
X42982430Y-85642000D02*
X43193290Y-85642000D01*
X43193290Y-85642000D02*
X43263570Y-85606860D01*
X43263570Y-85606860D02*
X43298710Y-85571710D01*
X43298710Y-85571710D02*
X43333860Y-85501430D01*
X43333860Y-85501430D02*
X43333860Y-85360860D01*
X43333860Y-85360860D02*
X43298710Y-85290570D01*
X42841860Y-85888000D02*
X43333860Y-86063710D01*
X42841860Y-86239430D02*
X43333860Y-86063710D01*
X43333860Y-86063710D02*
X43509570Y-85993430D01*
X43509570Y-85993430D02*
X43544710Y-85958290D01*
X43544710Y-85958290D02*
X43579860Y-85888000D01*
X42631000Y-87469430D02*
X42595860Y-87399140D01*
X42595860Y-87399140D02*
X42595860Y-87293710D01*
X42595860Y-87293710D02*
X42631000Y-87188290D01*
X42631000Y-87188290D02*
X42701290Y-87118000D01*
X42701290Y-87118000D02*
X42771570Y-87082860D01*
X42771570Y-87082860D02*
X42912140Y-87047710D01*
X42912140Y-87047710D02*
X43017570Y-87047710D01*
X43017570Y-87047710D02*
X43158140Y-87082860D01*
X43158140Y-87082860D02*
X43228430Y-87118000D01*
X43228430Y-87118000D02*
X43298710Y-87188290D01*
X43298710Y-87188290D02*
X43333860Y-87293710D01*
X43333860Y-87293710D02*
X43333860Y-87364000D01*
X43333860Y-87364000D02*
X43298710Y-87469430D01*
X43298710Y-87469430D02*
X43263570Y-87504570D01*
X43263570Y-87504570D02*
X43017570Y-87504570D01*
X43017570Y-87504570D02*
X43017570Y-87364000D01*
X43333860Y-88137140D02*
X42947290Y-88137140D01*
X42947290Y-88137140D02*
X42877000Y-88102000D01*
X42877000Y-88102000D02*
X42841860Y-88031710D01*
X42841860Y-88031710D02*
X42841860Y-87891140D01*
X42841860Y-87891140D02*
X42877000Y-87820860D01*
X43298710Y-88137140D02*
X43333860Y-88066860D01*
X43333860Y-88066860D02*
X43333860Y-87891140D01*
X43333860Y-87891140D02*
X43298710Y-87820860D01*
X43298710Y-87820860D02*
X43228430Y-87785710D01*
X43228430Y-87785710D02*
X43158140Y-87785710D01*
X43158140Y-87785710D02*
X43087860Y-87820860D01*
X43087860Y-87820860D02*
X43052710Y-87891140D01*
X43052710Y-87891140D02*
X43052710Y-88066860D01*
X43052710Y-88066860D02*
X43017570Y-88137140D01*
X43333860Y-88488570D02*
X42841860Y-88488570D01*
X42982430Y-88488570D02*
X42912140Y-88523710D01*
X42912140Y-88523710D02*
X42877000Y-88558860D01*
X42877000Y-88558860D02*
X42841860Y-88629140D01*
X42841860Y-88629140D02*
X42841860Y-88699430D01*
X43333860Y-88945430D02*
X42841860Y-88945430D01*
X42982430Y-88945430D02*
X42912140Y-88980570D01*
X42912140Y-88980570D02*
X42877000Y-89015710D01*
X42877000Y-89015710D02*
X42841860Y-89086000D01*
X42841860Y-89086000D02*
X42841860Y-89156290D01*
X43298710Y-89683430D02*
X43333860Y-89613140D01*
X43333860Y-89613140D02*
X43333860Y-89472570D01*
X43333860Y-89472570D02*
X43298710Y-89402290D01*
X43298710Y-89402290D02*
X43228430Y-89367140D01*
X43228430Y-89367140D02*
X42947290Y-89367140D01*
X42947290Y-89367140D02*
X42877000Y-89402290D01*
X42877000Y-89402290D02*
X42841860Y-89472570D01*
X42841860Y-89472570D02*
X42841860Y-89613140D01*
X42841860Y-89613140D02*
X42877000Y-89683430D01*
X42877000Y-89683430D02*
X42947290Y-89718570D01*
X42947290Y-89718570D02*
X43017570Y-89718570D01*
X43017570Y-89718570D02*
X43087860Y-89367140D01*
X42841860Y-89929430D02*
X42841860Y-90210570D01*
X42595860Y-90034860D02*
X43228430Y-90034860D01*
X43228430Y-90034860D02*
X43298710Y-90070000D01*
X43298710Y-90070000D02*
X43333860Y-90140290D01*
X43333860Y-90140290D02*
X43333860Y-90210570D01*
X42631000Y-91405430D02*
X42595860Y-91335140D01*
X42595860Y-91335140D02*
X42595860Y-91229710D01*
X42595860Y-91229710D02*
X42631000Y-91124290D01*
X42631000Y-91124290D02*
X42701290Y-91054000D01*
X42701290Y-91054000D02*
X42771570Y-91018860D01*
X42771570Y-91018860D02*
X42912140Y-90983710D01*
X42912140Y-90983710D02*
X43017570Y-90983710D01*
X43017570Y-90983710D02*
X43158140Y-91018860D01*
X43158140Y-91018860D02*
X43228430Y-91054000D01*
X43228430Y-91054000D02*
X43298710Y-91124290D01*
X43298710Y-91124290D02*
X43333860Y-91229710D01*
X43333860Y-91229710D02*
X43333860Y-91300000D01*
X43333860Y-91300000D02*
X43298710Y-91405430D01*
X43298710Y-91405430D02*
X43263570Y-91440570D01*
X43263570Y-91440570D02*
X43017570Y-91440570D01*
X43017570Y-91440570D02*
X43017570Y-91300000D01*
X43263570Y-91756860D02*
X43298710Y-91792000D01*
X43298710Y-91792000D02*
X43333860Y-91756860D01*
X43333860Y-91756860D02*
X43298710Y-91721710D01*
X43298710Y-91721710D02*
X43263570Y-91756860D01*
X43263570Y-91756860D02*
X43333860Y-91756860D01*
X43052710Y-92670570D02*
X43052710Y-93232860D01*
X43333860Y-94146570D02*
X42595860Y-94146570D01*
X42595860Y-94146570D02*
X43123000Y-94392570D01*
X43123000Y-94392570D02*
X42595860Y-94638570D01*
X42595860Y-94638570D02*
X43333860Y-94638570D01*
X43333860Y-95306290D02*
X42947290Y-95306290D01*
X42947290Y-95306290D02*
X42877000Y-95271140D01*
X42877000Y-95271140D02*
X42841860Y-95200860D01*
X42841860Y-95200860D02*
X42841860Y-95060290D01*
X42841860Y-95060290D02*
X42877000Y-94990000D01*
X43298710Y-95306290D02*
X43333860Y-95236000D01*
X43333860Y-95236000D02*
X43333860Y-95060290D01*
X43333860Y-95060290D02*
X43298710Y-94990000D01*
X43298710Y-94990000D02*
X43228430Y-94954860D01*
X43228430Y-94954860D02*
X43158140Y-94954860D01*
X43158140Y-94954860D02*
X43087860Y-94990000D01*
X43087860Y-94990000D02*
X43052710Y-95060290D01*
X43052710Y-95060290D02*
X43052710Y-95236000D01*
X43052710Y-95236000D02*
X43017570Y-95306290D01*
X43333860Y-95657710D02*
X42841860Y-95657710D01*
X42982430Y-95657710D02*
X42912140Y-95692860D01*
X42912140Y-95692860D02*
X42877000Y-95728000D01*
X42877000Y-95728000D02*
X42841860Y-95798290D01*
X42841860Y-95798290D02*
X42841860Y-95868570D01*
X43298710Y-96430860D02*
X43333860Y-96360570D01*
X43333860Y-96360570D02*
X43333860Y-96220000D01*
X43333860Y-96220000D02*
X43298710Y-96149710D01*
X43298710Y-96149710D02*
X43263570Y-96114570D01*
X43263570Y-96114570D02*
X43193290Y-96079430D01*
X43193290Y-96079430D02*
X42982430Y-96079430D01*
X42982430Y-96079430D02*
X42912140Y-96114570D01*
X42912140Y-96114570D02*
X42877000Y-96149710D01*
X42877000Y-96149710D02*
X42841860Y-96220000D01*
X42841860Y-96220000D02*
X42841860Y-96360570D01*
X42841860Y-96360570D02*
X42877000Y-96430860D01*
X43333860Y-96747140D02*
X42595860Y-96747140D01*
X43333860Y-97063430D02*
X42947290Y-97063430D01*
X42947290Y-97063430D02*
X42877000Y-97028290D01*
X42877000Y-97028290D02*
X42841860Y-96958000D01*
X42841860Y-96958000D02*
X42841860Y-96852570D01*
X42841860Y-96852570D02*
X42877000Y-96782290D01*
X42877000Y-96782290D02*
X42912140Y-96747140D01*
X42666140Y-97942000D02*
X42631000Y-97977140D01*
X42631000Y-97977140D02*
X42595860Y-98047430D01*
X42595860Y-98047430D02*
X42595860Y-98223140D01*
X42595860Y-98223140D02*
X42631000Y-98293430D01*
X42631000Y-98293430D02*
X42666140Y-98328570D01*
X42666140Y-98328570D02*
X42736430Y-98363710D01*
X42736430Y-98363710D02*
X42806710Y-98363710D01*
X42806710Y-98363710D02*
X42912140Y-98328570D01*
X42912140Y-98328570D02*
X43333860Y-97906860D01*
X43333860Y-97906860D02*
X43333860Y-98363710D01*
X42595860Y-98820570D02*
X42595860Y-98890860D01*
X42595860Y-98890860D02*
X42631000Y-98961140D01*
X42631000Y-98961140D02*
X42666140Y-98996290D01*
X42666140Y-98996290D02*
X42736430Y-99031430D01*
X42736430Y-99031430D02*
X42877000Y-99066570D01*
X42877000Y-99066570D02*
X43052710Y-99066570D01*
X43052710Y-99066570D02*
X43193290Y-99031430D01*
X43193290Y-99031430D02*
X43263570Y-98996290D01*
X43263570Y-98996290D02*
X43298710Y-98961140D01*
X43298710Y-98961140D02*
X43333860Y-98890860D01*
X43333860Y-98890860D02*
X43333860Y-98820570D01*
X43333860Y-98820570D02*
X43298710Y-98750290D01*
X43298710Y-98750290D02*
X43263570Y-98715140D01*
X43263570Y-98715140D02*
X43193290Y-98680000D01*
X43193290Y-98680000D02*
X43052710Y-98644860D01*
X43052710Y-98644860D02*
X42877000Y-98644860D01*
X42877000Y-98644860D02*
X42736430Y-98680000D01*
X42736430Y-98680000D02*
X42666140Y-98715140D01*
X42666140Y-98715140D02*
X42631000Y-98750290D01*
X42631000Y-98750290D02*
X42595860Y-98820570D01*
X43333860Y-99769430D02*
X43333860Y-99347710D01*
X43333860Y-99558570D02*
X42595860Y-99558570D01*
X42595860Y-99558570D02*
X42701290Y-99488290D01*
X42701290Y-99488290D02*
X42771570Y-99418000D01*
X42771570Y-99418000D02*
X42806710Y-99347710D01*
X43333860Y-100120860D02*
X43333860Y-100261430D01*
X43333860Y-100261430D02*
X43298710Y-100331710D01*
X43298710Y-100331710D02*
X43263570Y-100366860D01*
X43263570Y-100366860D02*
X43158140Y-100437140D01*
X43158140Y-100437140D02*
X43017570Y-100472290D01*
X43017570Y-100472290D02*
X42736430Y-100472290D01*
X42736430Y-100472290D02*
X42666140Y-100437140D01*
X42666140Y-100437140D02*
X42631000Y-100402000D01*
X42631000Y-100402000D02*
X42595860Y-100331710D01*
X42595860Y-100331710D02*
X42595860Y-100191140D01*
X42595860Y-100191140D02*
X42631000Y-100120860D01*
X42631000Y-100120860D02*
X42666140Y-100085710D01*
X42666140Y-100085710D02*
X42736430Y-100050570D01*
X42736430Y-100050570D02*
X42912140Y-100050570D01*
X42912140Y-100050570D02*
X42982430Y-100085710D01*
X42982430Y-100085710D02*
X43017570Y-100120860D01*
X43017570Y-100120860D02*
X43052710Y-100191140D01*
X43052710Y-100191140D02*
X43052710Y-100331710D01*
X43052710Y-100331710D02*
X43017570Y-100402000D01*
X43017570Y-100402000D02*
X42982430Y-100437140D01*
X42982430Y-100437140D02*
X42912140Y-100472290D01*
D11*
X62674500Y-99155250D02*
X61150500Y-99155250D01*
X62674500Y-95599250D02*
X62674500Y-99663250D01*
X61150500Y-95599250D02*
X62674500Y-95599250D01*
X61150500Y-99663250D02*
X61150500Y-95599250D01*
X61150500Y-95599250D02*
X61150500Y-99663250D01*
X62674500Y-99663250D02*
X61150500Y-99663250D01*
D12*
X48650000Y-62300000D02*
X46110000Y-62300000D01*
X48650000Y-59760000D02*
X48650000Y-62300000D01*
D13*
G36*
X61144640Y-66149030D02*
G01*
X61044640Y-66149030D01*
X61044640Y-66049030D01*
X61144640Y-66049030D01*
X61144640Y-66149030D01*
G37*
D11*
X61044640Y-66049030D02*
X61044640Y-66149030D01*
X61044640Y-66149030D02*
X61144640Y-66149030D01*
X61144640Y-66149030D02*
X61144640Y-66049030D01*
X61144640Y-66049030D02*
X61044640Y-66049030D01*
D13*
G36*
X61344640Y-66449030D02*
G01*
X61244640Y-66449030D01*
X61244640Y-65649030D01*
X61344640Y-65649030D01*
X61344640Y-66449030D01*
G37*
D11*
X61244640Y-65649030D02*
X61244640Y-66449030D01*
X61244640Y-66449030D02*
X61344640Y-66449030D01*
X61344640Y-66449030D02*
X61344640Y-65649030D01*
X61344640Y-65649030D02*
X61244640Y-65649030D01*
D13*
G36*
X60944640Y-66449030D02*
G01*
X60844640Y-66449030D01*
X60844640Y-66249030D01*
X60944640Y-66249030D01*
X60944640Y-66449030D01*
G37*
D11*
X60844640Y-66249030D02*
X60844640Y-66449030D01*
X60844640Y-66449030D02*
X60944640Y-66449030D01*
X60944640Y-66449030D02*
X60944640Y-66249030D01*
X60944640Y-66249030D02*
X60844640Y-66249030D01*
D13*
G36*
X60944640Y-65949030D02*
G01*
X60844640Y-65949030D01*
X60844640Y-65649030D01*
X60944640Y-65649030D01*
X60944640Y-65949030D01*
G37*
D11*
X60844640Y-65649030D02*
X60844640Y-65949030D01*
X60844640Y-65949030D02*
X60944640Y-65949030D01*
X60944640Y-65949030D02*
X60944640Y-65649030D01*
X60944640Y-65649030D02*
X60844640Y-65649030D01*
D13*
G36*
X61344640Y-65749030D02*
G01*
X60844640Y-65749030D01*
X60844640Y-65649030D01*
X61344640Y-65649030D01*
X61344640Y-65749030D01*
G37*
D11*
X60844640Y-65649030D02*
X60844640Y-65749030D01*
X60844640Y-65749030D02*
X61344640Y-65749030D01*
X61344640Y-65749030D02*
X61344640Y-65649030D01*
X61344640Y-65649030D02*
X60844640Y-65649030D01*
D12*
X63890000Y-90240000D02*
X63890000Y-57220000D01*
X46110000Y-90240000D02*
X63890000Y-90240000D01*
X46110000Y-57220000D02*
X46110000Y-90240000D01*
X63890000Y-57220000D02*
X46110000Y-57220000D01*
X48650000Y-59760000D02*
X46110000Y-59760000D01*
D11*
X48387000Y-99663250D02*
X46863000Y-99663250D01*
X46863000Y-95599250D02*
X46863000Y-99663250D01*
X46863000Y-99663250D02*
X46863000Y-95599250D01*
X46863000Y-95599250D02*
X48387000Y-95599250D01*
X48387000Y-95599250D02*
X48387000Y-99663250D01*
X48387000Y-99155250D02*
X46863000Y-99155250D01*
X53149500Y-99155250D02*
X51625500Y-99155250D01*
X53149500Y-95599250D02*
X53149500Y-99663250D01*
X51625500Y-95599250D02*
X53149500Y-95599250D01*
X51625500Y-99663250D02*
X51625500Y-95599250D01*
X51625500Y-95599250D02*
X51625500Y-99663250D01*
X53149500Y-99663250D02*
X51625500Y-99663250D01*
X57912000Y-99663250D02*
X56388000Y-99663250D01*
X56388000Y-95599250D02*
X56388000Y-99663250D01*
X56388000Y-99663250D02*
X56388000Y-95599250D01*
X56388000Y-95599250D02*
X57912000Y-95599250D01*
X57912000Y-95599250D02*
X57912000Y-99663250D01*
X57912000Y-99155250D02*
X56388000Y-99155250D01*
X48387000Y-111061500D02*
X46863000Y-111061500D01*
X48387000Y-107505500D02*
X48387000Y-111569500D01*
X46863000Y-107505500D02*
X48387000Y-107505500D01*
X46863000Y-111569500D02*
X46863000Y-107505500D01*
X46863000Y-107505500D02*
X46863000Y-111569500D01*
X48387000Y-111569500D02*
X46863000Y-111569500D01*
X53149500Y-111569500D02*
X51625500Y-111569500D01*
X51625500Y-107505500D02*
X51625500Y-111569500D01*
X51625500Y-111569500D02*
X51625500Y-107505500D01*
X51625500Y-107505500D02*
X53149500Y-107505500D01*
X53149500Y-107505500D02*
X53149500Y-111569500D01*
X53149500Y-111061500D02*
X51625500Y-111061500D01*
X57912000Y-111061500D02*
X56388000Y-111061500D01*
X57912000Y-107505500D02*
X57912000Y-111569500D01*
X56388000Y-107505500D02*
X57912000Y-107505500D01*
X56388000Y-111569500D02*
X56388000Y-107505500D01*
X56388000Y-107505500D02*
X56388000Y-111569500D01*
X57912000Y-111569500D02*
X56388000Y-111569500D01*
X62674500Y-111569500D02*
X61150500Y-111569500D01*
X61150500Y-107505500D02*
X61150500Y-111569500D01*
X61150500Y-111569500D02*
X61150500Y-107505500D01*
X61150500Y-107505500D02*
X62674500Y-107505500D01*
X62674500Y-107505500D02*
X62674500Y-111569500D01*
X62674500Y-111061500D02*
X61150500Y-111061500D01*
X48387000Y-123475750D02*
X46863000Y-123475750D01*
X46863000Y-119411750D02*
X46863000Y-123475750D01*
X46863000Y-123475750D02*
X46863000Y-119411750D01*
X46863000Y-119411750D02*
X48387000Y-119411750D01*
X48387000Y-119411750D02*
X48387000Y-123475750D01*
X48387000Y-122967750D02*
X46863000Y-122967750D01*
X53149500Y-122967750D02*
X51625500Y-122967750D01*
X53149500Y-119411750D02*
X53149500Y-123475750D01*
X51625500Y-119411750D02*
X53149500Y-119411750D01*
X51625500Y-123475750D02*
X51625500Y-119411750D01*
X51625500Y-119411750D02*
X51625500Y-123475750D01*
X53149500Y-123475750D02*
X51625500Y-123475750D01*
X57912000Y-123475750D02*
X56388000Y-123475750D01*
X56388000Y-119411750D02*
X56388000Y-123475750D01*
X56388000Y-123475750D02*
X56388000Y-119411750D01*
X56388000Y-119411750D02*
X57912000Y-119411750D01*
X57912000Y-119411750D02*
X57912000Y-123475750D01*
X57912000Y-122967750D02*
X56388000Y-122967750D01*
X62674500Y-122967750D02*
X61150500Y-122967750D01*
X62674500Y-119411750D02*
X62674500Y-123475750D01*
X61150500Y-119411750D02*
X62674500Y-119411750D01*
X61150500Y-123475750D02*
X61150500Y-119411750D01*
X61150500Y-119411750D02*
X61150500Y-123475750D01*
X62674500Y-123475750D02*
X61150500Y-123475750D01*
X96464290Y-125071130D02*
X96464290Y-124071130D01*
X95892860Y-125071130D02*
X96321430Y-124499700D01*
X95892860Y-124071130D02*
X96464290Y-124642560D01*
X94940480Y-125071130D02*
X95511900Y-125071130D01*
X95226190Y-125071130D02*
X95226190Y-124071130D01*
X95226190Y-124071130D02*
X95321430Y-124213990D01*
X95321430Y-124213990D02*
X95416670Y-124309230D01*
X95416670Y-124309230D02*
X95511900Y-124356850D01*
X93988100Y-125071130D02*
X94559520Y-125071130D01*
X94273810Y-125071130D02*
X94273810Y-124071130D01*
X94273810Y-124071130D02*
X94369050Y-124213990D01*
X94369050Y-124213990D02*
X94464290Y-124309230D01*
X94464290Y-124309230D02*
X94559520Y-124356850D01*
X115514290Y-125071130D02*
X115514290Y-124071130D01*
X114942860Y-125071130D02*
X115371430Y-124499700D01*
X114942860Y-124071130D02*
X115514290Y-124642560D01*
X113990480Y-125071130D02*
X114561900Y-125071130D01*
X114276190Y-125071130D02*
X114276190Y-124071130D01*
X114276190Y-124071130D02*
X114371430Y-124213990D01*
X114371430Y-124213990D02*
X114466670Y-124309230D01*
X114466670Y-124309230D02*
X114561900Y-124356850D01*
X113609520Y-124166370D02*
X113561900Y-124118750D01*
X113561900Y-124118750D02*
X113466670Y-124071130D01*
X113466670Y-124071130D02*
X113228570Y-124071130D01*
X113228570Y-124071130D02*
X113133330Y-124118750D01*
X113133330Y-124118750D02*
X113085710Y-124166370D01*
X113085710Y-124166370D02*
X113038100Y-124261610D01*
X113038100Y-124261610D02*
X113038100Y-124356850D01*
X113038100Y-124356850D02*
X113085710Y-124499700D01*
X113085710Y-124499700D02*
X113657140Y-125071130D01*
X113657140Y-125071130D02*
X113038100Y-125071130D01*
X115038100Y-67921130D02*
X115038100Y-66921130D01*
X114466670Y-67921130D02*
X114895240Y-67349700D01*
X114466670Y-66921130D02*
X115038100Y-67492560D01*
X114133330Y-66921130D02*
X113514290Y-66921130D01*
X113514290Y-66921130D02*
X113847620Y-67302080D01*
X113847620Y-67302080D02*
X113704760Y-67302080D01*
X113704760Y-67302080D02*
X113609520Y-67349700D01*
X113609520Y-67349700D02*
X113561900Y-67397320D01*
X113561900Y-67397320D02*
X113514290Y-67492560D01*
X113514290Y-67492560D02*
X113514290Y-67730650D01*
X113514290Y-67730650D02*
X113561900Y-67825890D01*
X113561900Y-67825890D02*
X113609520Y-67873510D01*
X113609520Y-67873510D02*
X113704760Y-67921130D01*
X113704760Y-67921130D02*
X113990480Y-67921130D01*
X113990480Y-67921130D02*
X114085710Y-67873510D01*
X114085710Y-67873510D02*
X114133330Y-67825890D01*
X76938100Y-106021130D02*
X76938100Y-105021130D01*
X76366670Y-106021130D02*
X76795240Y-105449700D01*
X76366670Y-105021130D02*
X76938100Y-105592560D01*
X76033330Y-105021130D02*
X75366670Y-105021130D01*
X75366670Y-105021130D02*
X75795240Y-106021130D01*
X95988100Y-67921130D02*
X95988100Y-66921130D01*
X95416670Y-67921130D02*
X95845240Y-67349700D01*
X95416670Y-66921130D02*
X95988100Y-67492560D01*
X95035710Y-67016370D02*
X94988100Y-66968750D01*
X94988100Y-66968750D02*
X94892860Y-66921130D01*
X94892860Y-66921130D02*
X94654760Y-66921130D01*
X94654760Y-66921130D02*
X94559520Y-66968750D01*
X94559520Y-66968750D02*
X94511900Y-67016370D01*
X94511900Y-67016370D02*
X94464290Y-67111610D01*
X94464290Y-67111610D02*
X94464290Y-67206850D01*
X94464290Y-67206850D02*
X94511900Y-67349700D01*
X94511900Y-67349700D02*
X95083330Y-67921130D01*
X95083330Y-67921130D02*
X94464290Y-67921130D01*
X95988100Y-106021130D02*
X95988100Y-105021130D01*
X95416670Y-106021130D02*
X95845240Y-105449700D01*
X95416670Y-105021130D02*
X95988100Y-105592560D01*
X94845240Y-105449700D02*
X94940480Y-105402080D01*
X94940480Y-105402080D02*
X94988100Y-105354460D01*
X94988100Y-105354460D02*
X95035710Y-105259230D01*
X95035710Y-105259230D02*
X95035710Y-105211610D01*
X95035710Y-105211610D02*
X94988100Y-105116370D01*
X94988100Y-105116370D02*
X94940480Y-105068750D01*
X94940480Y-105068750D02*
X94845240Y-105021130D01*
X94845240Y-105021130D02*
X94654760Y-105021130D01*
X94654760Y-105021130D02*
X94559520Y-105068750D01*
X94559520Y-105068750D02*
X94511900Y-105116370D01*
X94511900Y-105116370D02*
X94464290Y-105211610D01*
X94464290Y-105211610D02*
X94464290Y-105259230D01*
X94464290Y-105259230D02*
X94511900Y-105354460D01*
X94511900Y-105354460D02*
X94559520Y-105402080D01*
X94559520Y-105402080D02*
X94654760Y-105449700D01*
X94654760Y-105449700D02*
X94845240Y-105449700D01*
X94845240Y-105449700D02*
X94940480Y-105497320D01*
X94940480Y-105497320D02*
X94988100Y-105544940D01*
X94988100Y-105544940D02*
X95035710Y-105640180D01*
X95035710Y-105640180D02*
X95035710Y-105830650D01*
X95035710Y-105830650D02*
X94988100Y-105925890D01*
X94988100Y-105925890D02*
X94940480Y-105973510D01*
X94940480Y-105973510D02*
X94845240Y-106021130D01*
X94845240Y-106021130D02*
X94654760Y-106021130D01*
X94654760Y-106021130D02*
X94559520Y-105973510D01*
X94559520Y-105973510D02*
X94511900Y-105925890D01*
X94511900Y-105925890D02*
X94464290Y-105830650D01*
X94464290Y-105830650D02*
X94464290Y-105640180D01*
X94464290Y-105640180D02*
X94511900Y-105544940D01*
X94511900Y-105544940D02*
X94559520Y-105497320D01*
X94559520Y-105497320D02*
X94654760Y-105449700D01*
X76938100Y-86971130D02*
X76938100Y-85971130D01*
X76366670Y-86971130D02*
X76795240Y-86399700D01*
X76366670Y-85971130D02*
X76938100Y-86542560D01*
X75509520Y-86304460D02*
X75509520Y-86971130D01*
X75747620Y-85923510D02*
X75985710Y-86637800D01*
X75985710Y-86637800D02*
X75366670Y-86637800D01*
X95988100Y-86971130D02*
X95988100Y-85971130D01*
X95416670Y-86971130D02*
X95845240Y-86399700D01*
X95416670Y-85971130D02*
X95988100Y-86542560D01*
X94511900Y-85971130D02*
X94988100Y-85971130D01*
X94988100Y-85971130D02*
X95035710Y-86447320D01*
X95035710Y-86447320D02*
X94988100Y-86399700D01*
X94988100Y-86399700D02*
X94892860Y-86352080D01*
X94892860Y-86352080D02*
X94654760Y-86352080D01*
X94654760Y-86352080D02*
X94559520Y-86399700D01*
X94559520Y-86399700D02*
X94511900Y-86447320D01*
X94511900Y-86447320D02*
X94464290Y-86542560D01*
X94464290Y-86542560D02*
X94464290Y-86780650D01*
X94464290Y-86780650D02*
X94511900Y-86875890D01*
X94511900Y-86875890D02*
X94559520Y-86923510D01*
X94559520Y-86923510D02*
X94654760Y-86971130D01*
X94654760Y-86971130D02*
X94892860Y-86971130D01*
X94892860Y-86971130D02*
X94988100Y-86923510D01*
X94988100Y-86923510D02*
X95035710Y-86875890D01*
X115038100Y-86971130D02*
X115038100Y-85971130D01*
X114466670Y-86971130D02*
X114895240Y-86399700D01*
X114466670Y-85971130D02*
X115038100Y-86542560D01*
X113609520Y-85971130D02*
X113800000Y-85971130D01*
X113800000Y-85971130D02*
X113895240Y-86018750D01*
X113895240Y-86018750D02*
X113942860Y-86066370D01*
X113942860Y-86066370D02*
X114038100Y-86209230D01*
X114038100Y-86209230D02*
X114085710Y-86399700D01*
X114085710Y-86399700D02*
X114085710Y-86780650D01*
X114085710Y-86780650D02*
X114038100Y-86875890D01*
X114038100Y-86875890D02*
X113990480Y-86923510D01*
X113990480Y-86923510D02*
X113895240Y-86971130D01*
X113895240Y-86971130D02*
X113704760Y-86971130D01*
X113704760Y-86971130D02*
X113609520Y-86923510D01*
X113609520Y-86923510D02*
X113561900Y-86875890D01*
X113561900Y-86875890D02*
X113514290Y-86780650D01*
X113514290Y-86780650D02*
X113514290Y-86542560D01*
X113514290Y-86542560D02*
X113561900Y-86447320D01*
X113561900Y-86447320D02*
X113609520Y-86399700D01*
X113609520Y-86399700D02*
X113704760Y-86352080D01*
X113704760Y-86352080D02*
X113895240Y-86352080D01*
X113895240Y-86352080D02*
X113990480Y-86399700D01*
X113990480Y-86399700D02*
X114038100Y-86447320D01*
X114038100Y-86447320D02*
X114085710Y-86542560D01*
X115038100Y-106021130D02*
X115038100Y-105021130D01*
X114466670Y-106021130D02*
X114895240Y-105449700D01*
X114466670Y-105021130D02*
X115038100Y-105592560D01*
X113990480Y-106021130D02*
X113800000Y-106021130D01*
X113800000Y-106021130D02*
X113704760Y-105973510D01*
X113704760Y-105973510D02*
X113657140Y-105925890D01*
X113657140Y-105925890D02*
X113561900Y-105783040D01*
X113561900Y-105783040D02*
X113514290Y-105592560D01*
X113514290Y-105592560D02*
X113514290Y-105211610D01*
X113514290Y-105211610D02*
X113561900Y-105116370D01*
X113561900Y-105116370D02*
X113609520Y-105068750D01*
X113609520Y-105068750D02*
X113704760Y-105021130D01*
X113704760Y-105021130D02*
X113895240Y-105021130D01*
X113895240Y-105021130D02*
X113990480Y-105068750D01*
X113990480Y-105068750D02*
X114038100Y-105116370D01*
X114038100Y-105116370D02*
X114085710Y-105211610D01*
X114085710Y-105211610D02*
X114085710Y-105449700D01*
X114085710Y-105449700D02*
X114038100Y-105544940D01*
X114038100Y-105544940D02*
X113990480Y-105592560D01*
X113990480Y-105592560D02*
X113895240Y-105640180D01*
X113895240Y-105640180D02*
X113704760Y-105640180D01*
X113704760Y-105640180D02*
X113609520Y-105592560D01*
X113609520Y-105592560D02*
X113561900Y-105544940D01*
X113561900Y-105544940D02*
X113514290Y-105449700D01*
X77414290Y-125071130D02*
X77414290Y-124071130D01*
X76842860Y-125071130D02*
X77271430Y-124499700D01*
X76842860Y-124071130D02*
X77414290Y-124642560D01*
X75890480Y-125071130D02*
X76461900Y-125071130D01*
X76176190Y-125071130D02*
X76176190Y-124071130D01*
X76176190Y-124071130D02*
X76271430Y-124213990D01*
X76271430Y-124213990D02*
X76366670Y-124309230D01*
X76366670Y-124309230D02*
X76461900Y-124356850D01*
X75271430Y-124071130D02*
X75176190Y-124071130D01*
X75176190Y-124071130D02*
X75080950Y-124118750D01*
X75080950Y-124118750D02*
X75033330Y-124166370D01*
X75033330Y-124166370D02*
X74985710Y-124261610D01*
X74985710Y-124261610D02*
X74938100Y-124452080D01*
X74938100Y-124452080D02*
X74938100Y-124690180D01*
X74938100Y-124690180D02*
X74985710Y-124880650D01*
X74985710Y-124880650D02*
X75033330Y-124975890D01*
X75033330Y-124975890D02*
X75080950Y-125023510D01*
X75080950Y-125023510D02*
X75176190Y-125071130D01*
X75176190Y-125071130D02*
X75271430Y-125071130D01*
X75271430Y-125071130D02*
X75366670Y-125023510D01*
X75366670Y-125023510D02*
X75414290Y-124975890D01*
X75414290Y-124975890D02*
X75461900Y-124880650D01*
X75461900Y-124880650D02*
X75509520Y-124690180D01*
X75509520Y-124690180D02*
X75509520Y-124452080D01*
X75509520Y-124452080D02*
X75461900Y-124261610D01*
X75461900Y-124261610D02*
X75414290Y-124166370D01*
X75414290Y-124166370D02*
X75366670Y-124118750D01*
X75366670Y-124118750D02*
X75271430Y-124071130D01*
X76938100Y-67921130D02*
X76938100Y-66921130D01*
X76366670Y-67921130D02*
X76795240Y-67349700D01*
X76366670Y-66921130D02*
X76938100Y-67492560D01*
X75414290Y-67921130D02*
X75985710Y-67921130D01*
X75700000Y-67921130D02*
X75700000Y-66921130D01*
X75700000Y-66921130D02*
X75795240Y-67063990D01*
X75795240Y-67063990D02*
X75890480Y-67159230D01*
X75890480Y-67159230D02*
X75985710Y-67206850D01*
X62274400Y-97114580D02*
X61474400Y-97114580D01*
X61474400Y-97114580D02*
X61474400Y-97281250D01*
X61474400Y-97281250D02*
X61512500Y-97381250D01*
X61512500Y-97381250D02*
X61588690Y-97447920D01*
X61588690Y-97447920D02*
X61664880Y-97481250D01*
X61664880Y-97481250D02*
X61817260Y-97514580D01*
X61817260Y-97514580D02*
X61931550Y-97514580D01*
X61931550Y-97514580D02*
X62083930Y-97481250D01*
X62083930Y-97481250D02*
X62160120Y-97447920D01*
X62160120Y-97447920D02*
X62236310Y-97381250D01*
X62236310Y-97381250D02*
X62274400Y-97281250D01*
X62274400Y-97281250D02*
X62274400Y-97114580D01*
X61741070Y-98114580D02*
X62274400Y-98114580D01*
X61436310Y-97947920D02*
X62007740Y-97781250D01*
X62007740Y-97781250D02*
X62007740Y-98214580D01*
X50129480Y-63931900D02*
X50129480Y-63131900D01*
X50129480Y-63131900D02*
X49939000Y-63131900D01*
X49939000Y-63131900D02*
X49824710Y-63170000D01*
X49824710Y-63170000D02*
X49748520Y-63246190D01*
X49748520Y-63246190D02*
X49710430Y-63322380D01*
X49710430Y-63322380D02*
X49672330Y-63474760D01*
X49672330Y-63474760D02*
X49672330Y-63589050D01*
X49672330Y-63589050D02*
X49710430Y-63741430D01*
X49710430Y-63741430D02*
X49748520Y-63817620D01*
X49748520Y-63817620D02*
X49824710Y-63893810D01*
X49824710Y-63893810D02*
X49939000Y-63931900D01*
X49939000Y-63931900D02*
X50129480Y-63931900D01*
X49367570Y-63208100D02*
X49329480Y-63170000D01*
X49329480Y-63170000D02*
X49253290Y-63131900D01*
X49253290Y-63131900D02*
X49062810Y-63131900D01*
X49062810Y-63131900D02*
X48986620Y-63170000D01*
X48986620Y-63170000D02*
X48948520Y-63208100D01*
X48948520Y-63208100D02*
X48910430Y-63284290D01*
X48910430Y-63284290D02*
X48910430Y-63360480D01*
X48910430Y-63360480D02*
X48948520Y-63474760D01*
X48948520Y-63474760D02*
X49405670Y-63931900D01*
X49405670Y-63931900D02*
X48910430Y-63931900D01*
X50129480Y-74091900D02*
X50129480Y-73291900D01*
X50129480Y-73291900D02*
X49939000Y-73291900D01*
X49939000Y-73291900D02*
X49824710Y-73330000D01*
X49824710Y-73330000D02*
X49748520Y-73406190D01*
X49748520Y-73406190D02*
X49710430Y-73482380D01*
X49710430Y-73482380D02*
X49672330Y-73634760D01*
X49672330Y-73634760D02*
X49672330Y-73749050D01*
X49672330Y-73749050D02*
X49710430Y-73901430D01*
X49710430Y-73901430D02*
X49748520Y-73977620D01*
X49748520Y-73977620D02*
X49824710Y-74053810D01*
X49824710Y-74053810D02*
X49939000Y-74091900D01*
X49939000Y-74091900D02*
X50129480Y-74091900D01*
X49177100Y-73291900D02*
X49100900Y-73291900D01*
X49100900Y-73291900D02*
X49024710Y-73330000D01*
X49024710Y-73330000D02*
X48986620Y-73368100D01*
X48986620Y-73368100D02*
X48948520Y-73444290D01*
X48948520Y-73444290D02*
X48910430Y-73596670D01*
X48910430Y-73596670D02*
X48910430Y-73787140D01*
X48910430Y-73787140D02*
X48948520Y-73939520D01*
X48948520Y-73939520D02*
X48986620Y-74015710D01*
X48986620Y-74015710D02*
X49024710Y-74053810D01*
X49024710Y-74053810D02*
X49100900Y-74091900D01*
X49100900Y-74091900D02*
X49177100Y-74091900D01*
X49177100Y-74091900D02*
X49253290Y-74053810D01*
X49253290Y-74053810D02*
X49291380Y-74015710D01*
X49291380Y-74015710D02*
X49329480Y-73939520D01*
X49329480Y-73939520D02*
X49367570Y-73787140D01*
X49367570Y-73787140D02*
X49367570Y-73596670D01*
X49367570Y-73596670D02*
X49329480Y-73444290D01*
X49329480Y-73444290D02*
X49291380Y-73368100D01*
X49291380Y-73368100D02*
X49253290Y-73330000D01*
X49253290Y-73330000D02*
X49177100Y-73291900D01*
X50129480Y-71551900D02*
X50129480Y-70751900D01*
X50129480Y-70751900D02*
X49939000Y-70751900D01*
X49939000Y-70751900D02*
X49824710Y-70790000D01*
X49824710Y-70790000D02*
X49748520Y-70866190D01*
X49748520Y-70866190D02*
X49710430Y-70942380D01*
X49710430Y-70942380D02*
X49672330Y-71094760D01*
X49672330Y-71094760D02*
X49672330Y-71209050D01*
X49672330Y-71209050D02*
X49710430Y-71361430D01*
X49710430Y-71361430D02*
X49748520Y-71437620D01*
X49748520Y-71437620D02*
X49824710Y-71513810D01*
X49824710Y-71513810D02*
X49939000Y-71551900D01*
X49939000Y-71551900D02*
X50129480Y-71551900D01*
X48910430Y-71551900D02*
X49367570Y-71551900D01*
X49139000Y-71551900D02*
X49139000Y-70751900D01*
X49139000Y-70751900D02*
X49215190Y-70866190D01*
X49215190Y-70866190D02*
X49291380Y-70942380D01*
X49291380Y-70942380D02*
X49367570Y-70980480D01*
X50148520Y-68250000D02*
X50224710Y-68211900D01*
X50224710Y-68211900D02*
X50339000Y-68211900D01*
X50339000Y-68211900D02*
X50453290Y-68250000D01*
X50453290Y-68250000D02*
X50529480Y-68326190D01*
X50529480Y-68326190D02*
X50567570Y-68402380D01*
X50567570Y-68402380D02*
X50605670Y-68554760D01*
X50605670Y-68554760D02*
X50605670Y-68669050D01*
X50605670Y-68669050D02*
X50567570Y-68821430D01*
X50567570Y-68821430D02*
X50529480Y-68897620D01*
X50529480Y-68897620D02*
X50453290Y-68973810D01*
X50453290Y-68973810D02*
X50339000Y-69011900D01*
X50339000Y-69011900D02*
X50262810Y-69011900D01*
X50262810Y-69011900D02*
X50148520Y-68973810D01*
X50148520Y-68973810D02*
X50110430Y-68935710D01*
X50110430Y-68935710D02*
X50110430Y-68669050D01*
X50110430Y-68669050D02*
X50262810Y-68669050D01*
X49767570Y-69011900D02*
X49767570Y-68211900D01*
X49767570Y-68211900D02*
X49310430Y-69011900D01*
X49310430Y-69011900D02*
X49310430Y-68211900D01*
X48929480Y-69011900D02*
X48929480Y-68211900D01*
X48929480Y-68211900D02*
X48739000Y-68211900D01*
X48739000Y-68211900D02*
X48624710Y-68250000D01*
X48624710Y-68250000D02*
X48548520Y-68326190D01*
X48548520Y-68326190D02*
X48510430Y-68402380D01*
X48510430Y-68402380D02*
X48472330Y-68554760D01*
X48472330Y-68554760D02*
X48472330Y-68669050D01*
X48472330Y-68669050D02*
X48510430Y-68821430D01*
X48510430Y-68821430D02*
X48548520Y-68897620D01*
X48548520Y-68897620D02*
X48624710Y-68973810D01*
X48624710Y-68973810D02*
X48739000Y-69011900D01*
X48739000Y-69011900D02*
X48929480Y-69011900D01*
X50148520Y-65710000D02*
X50224710Y-65671900D01*
X50224710Y-65671900D02*
X50339000Y-65671900D01*
X50339000Y-65671900D02*
X50453290Y-65710000D01*
X50453290Y-65710000D02*
X50529480Y-65786190D01*
X50529480Y-65786190D02*
X50567570Y-65862380D01*
X50567570Y-65862380D02*
X50605670Y-66014760D01*
X50605670Y-66014760D02*
X50605670Y-66129050D01*
X50605670Y-66129050D02*
X50567570Y-66281430D01*
X50567570Y-66281430D02*
X50529480Y-66357620D01*
X50529480Y-66357620D02*
X50453290Y-66433810D01*
X50453290Y-66433810D02*
X50339000Y-66471900D01*
X50339000Y-66471900D02*
X50262810Y-66471900D01*
X50262810Y-66471900D02*
X50148520Y-66433810D01*
X50148520Y-66433810D02*
X50110430Y-66395710D01*
X50110430Y-66395710D02*
X50110430Y-66129050D01*
X50110430Y-66129050D02*
X50262810Y-66129050D01*
X49767570Y-66471900D02*
X49767570Y-65671900D01*
X49767570Y-65671900D02*
X49310430Y-66471900D01*
X49310430Y-66471900D02*
X49310430Y-65671900D01*
X48929480Y-66471900D02*
X48929480Y-65671900D01*
X48929480Y-65671900D02*
X48739000Y-65671900D01*
X48739000Y-65671900D02*
X48624710Y-65710000D01*
X48624710Y-65710000D02*
X48548520Y-65786190D01*
X48548520Y-65786190D02*
X48510430Y-65862380D01*
X48510430Y-65862380D02*
X48472330Y-66014760D01*
X48472330Y-66014760D02*
X48472330Y-66129050D01*
X48472330Y-66129050D02*
X48510430Y-66281430D01*
X48510430Y-66281430D02*
X48548520Y-66357620D01*
X48548520Y-66357620D02*
X48624710Y-66433810D01*
X48624710Y-66433810D02*
X48739000Y-66471900D01*
X48739000Y-66471900D02*
X48929480Y-66471900D01*
X50129480Y-76631900D02*
X50129480Y-75831900D01*
X50129480Y-75831900D02*
X49939000Y-75831900D01*
X49939000Y-75831900D02*
X49824710Y-75870000D01*
X49824710Y-75870000D02*
X49748520Y-75946190D01*
X49748520Y-75946190D02*
X49710430Y-76022380D01*
X49710430Y-76022380D02*
X49672330Y-76174760D01*
X49672330Y-76174760D02*
X49672330Y-76289050D01*
X49672330Y-76289050D02*
X49710430Y-76441430D01*
X49710430Y-76441430D02*
X49748520Y-76517620D01*
X49748520Y-76517620D02*
X49824710Y-76593810D01*
X49824710Y-76593810D02*
X49939000Y-76631900D01*
X49939000Y-76631900D02*
X50129480Y-76631900D01*
X48986620Y-76098570D02*
X48986620Y-76631900D01*
X49177100Y-75793810D02*
X49367570Y-76365240D01*
X49367570Y-76365240D02*
X48872330Y-76365240D01*
X49672330Y-79095710D02*
X49710430Y-79133810D01*
X49710430Y-79133810D02*
X49824710Y-79171900D01*
X49824710Y-79171900D02*
X49900900Y-79171900D01*
X49900900Y-79171900D02*
X50015190Y-79133810D01*
X50015190Y-79133810D02*
X50091380Y-79057620D01*
X50091380Y-79057620D02*
X50129480Y-78981430D01*
X50129480Y-78981430D02*
X50167570Y-78829050D01*
X50167570Y-78829050D02*
X50167570Y-78714760D01*
X50167570Y-78714760D02*
X50129480Y-78562380D01*
X50129480Y-78562380D02*
X50091380Y-78486190D01*
X50091380Y-78486190D02*
X50015190Y-78410000D01*
X50015190Y-78410000D02*
X49900900Y-78371900D01*
X49900900Y-78371900D02*
X49824710Y-78371900D01*
X49824710Y-78371900D02*
X49710430Y-78410000D01*
X49710430Y-78410000D02*
X49672330Y-78448100D01*
X48986620Y-78371900D02*
X49139000Y-78371900D01*
X49139000Y-78371900D02*
X49215190Y-78410000D01*
X49215190Y-78410000D02*
X49253290Y-78448100D01*
X49253290Y-78448100D02*
X49329480Y-78562380D01*
X49329480Y-78562380D02*
X49367570Y-78714760D01*
X49367570Y-78714760D02*
X49367570Y-79019520D01*
X49367570Y-79019520D02*
X49329480Y-79095710D01*
X49329480Y-79095710D02*
X49291380Y-79133810D01*
X49291380Y-79133810D02*
X49215190Y-79171900D01*
X49215190Y-79171900D02*
X49062810Y-79171900D01*
X49062810Y-79171900D02*
X48986620Y-79133810D01*
X48986620Y-79133810D02*
X48948520Y-79095710D01*
X48948520Y-79095710D02*
X48910430Y-79019520D01*
X48910430Y-79019520D02*
X48910430Y-78829050D01*
X48910430Y-78829050D02*
X48948520Y-78752860D01*
X48948520Y-78752860D02*
X48986620Y-78714760D01*
X48986620Y-78714760D02*
X49062810Y-78676670D01*
X49062810Y-78676670D02*
X49215190Y-78676670D01*
X49215190Y-78676670D02*
X49291380Y-78714760D01*
X49291380Y-78714760D02*
X49329480Y-78752860D01*
X49329480Y-78752860D02*
X49367570Y-78829050D01*
X50129480Y-81711900D02*
X50129480Y-80911900D01*
X50129480Y-80911900D02*
X49939000Y-80911900D01*
X49939000Y-80911900D02*
X49824710Y-80950000D01*
X49824710Y-80950000D02*
X49748520Y-81026190D01*
X49748520Y-81026190D02*
X49710430Y-81102380D01*
X49710430Y-81102380D02*
X49672330Y-81254760D01*
X49672330Y-81254760D02*
X49672330Y-81369050D01*
X49672330Y-81369050D02*
X49710430Y-81521430D01*
X49710430Y-81521430D02*
X49748520Y-81597620D01*
X49748520Y-81597620D02*
X49824710Y-81673810D01*
X49824710Y-81673810D02*
X49939000Y-81711900D01*
X49939000Y-81711900D02*
X50129480Y-81711900D01*
X49405670Y-80911900D02*
X48872330Y-80911900D01*
X48872330Y-80911900D02*
X49215190Y-81711900D01*
X50091380Y-83832860D02*
X49824710Y-83832860D01*
X49710430Y-84251900D02*
X50091380Y-84251900D01*
X50091380Y-84251900D02*
X50091380Y-83451900D01*
X50091380Y-83451900D02*
X49710430Y-83451900D01*
X49024710Y-83451900D02*
X49177100Y-83451900D01*
X49177100Y-83451900D02*
X49253290Y-83490000D01*
X49253290Y-83490000D02*
X49291380Y-83528100D01*
X49291380Y-83528100D02*
X49367570Y-83642380D01*
X49367570Y-83642380D02*
X49405670Y-83794760D01*
X49405670Y-83794760D02*
X49405670Y-84099520D01*
X49405670Y-84099520D02*
X49367570Y-84175710D01*
X49367570Y-84175710D02*
X49329480Y-84213810D01*
X49329480Y-84213810D02*
X49253290Y-84251900D01*
X49253290Y-84251900D02*
X49100900Y-84251900D01*
X49100900Y-84251900D02*
X49024710Y-84213810D01*
X49024710Y-84213810D02*
X48986620Y-84175710D01*
X48986620Y-84175710D02*
X48948520Y-84099520D01*
X48948520Y-84099520D02*
X48948520Y-83909050D01*
X48948520Y-83909050D02*
X48986620Y-83832860D01*
X48986620Y-83832860D02*
X49024710Y-83794760D01*
X49024710Y-83794760D02*
X49100900Y-83756670D01*
X49100900Y-83756670D02*
X49253290Y-83756670D01*
X49253290Y-83756670D02*
X49329480Y-83794760D01*
X49329480Y-83794760D02*
X49367570Y-83832860D01*
X49367570Y-83832860D02*
X49405670Y-83909050D01*
X49862810Y-86372860D02*
X49748520Y-86410950D01*
X49748520Y-86410950D02*
X49710430Y-86449050D01*
X49710430Y-86449050D02*
X49672330Y-86525240D01*
X49672330Y-86525240D02*
X49672330Y-86639520D01*
X49672330Y-86639520D02*
X49710430Y-86715710D01*
X49710430Y-86715710D02*
X49748520Y-86753810D01*
X49748520Y-86753810D02*
X49824710Y-86791900D01*
X49824710Y-86791900D02*
X50129480Y-86791900D01*
X50129480Y-86791900D02*
X50129480Y-85991900D01*
X50129480Y-85991900D02*
X49862810Y-85991900D01*
X49862810Y-85991900D02*
X49786620Y-86030000D01*
X49786620Y-86030000D02*
X49748520Y-86068100D01*
X49748520Y-86068100D02*
X49710430Y-86144290D01*
X49710430Y-86144290D02*
X49710430Y-86220480D01*
X49710430Y-86220480D02*
X49748520Y-86296670D01*
X49748520Y-86296670D02*
X49786620Y-86334760D01*
X49786620Y-86334760D02*
X49862810Y-86372860D01*
X49862810Y-86372860D02*
X50129480Y-86372860D01*
X48986620Y-86258570D02*
X48986620Y-86791900D01*
X49177100Y-85953810D02*
X49367570Y-86525240D01*
X49367570Y-86525240D02*
X48872330Y-86525240D01*
X49862810Y-88912860D02*
X49748520Y-88950950D01*
X49748520Y-88950950D02*
X49710430Y-88989050D01*
X49710430Y-88989050D02*
X49672330Y-89065240D01*
X49672330Y-89065240D02*
X49672330Y-89179520D01*
X49672330Y-89179520D02*
X49710430Y-89255710D01*
X49710430Y-89255710D02*
X49748520Y-89293810D01*
X49748520Y-89293810D02*
X49824710Y-89331900D01*
X49824710Y-89331900D02*
X50129480Y-89331900D01*
X50129480Y-89331900D02*
X50129480Y-88531900D01*
X50129480Y-88531900D02*
X49862810Y-88531900D01*
X49862810Y-88531900D02*
X49786620Y-88570000D01*
X49786620Y-88570000D02*
X49748520Y-88608100D01*
X49748520Y-88608100D02*
X49710430Y-88684290D01*
X49710430Y-88684290D02*
X49710430Y-88760480D01*
X49710430Y-88760480D02*
X49748520Y-88836670D01*
X49748520Y-88836670D02*
X49786620Y-88874760D01*
X49786620Y-88874760D02*
X49862810Y-88912860D01*
X49862810Y-88912860D02*
X50129480Y-88912860D01*
X48948520Y-88531900D02*
X49329480Y-88531900D01*
X49329480Y-88531900D02*
X49367570Y-88912860D01*
X49367570Y-88912860D02*
X49329480Y-88874760D01*
X49329480Y-88874760D02*
X49253290Y-88836670D01*
X49253290Y-88836670D02*
X49062810Y-88836670D01*
X49062810Y-88836670D02*
X48986620Y-88874760D01*
X48986620Y-88874760D02*
X48948520Y-88912860D01*
X48948520Y-88912860D02*
X48910430Y-88989050D01*
X48910430Y-88989050D02*
X48910430Y-89179520D01*
X48910430Y-89179520D02*
X48948520Y-89255710D01*
X48948520Y-89255710D02*
X48986620Y-89293810D01*
X48986620Y-89293810D02*
X49062810Y-89331900D01*
X49062810Y-89331900D02*
X49253290Y-89331900D01*
X49253290Y-89331900D02*
X49329480Y-89293810D01*
X49329480Y-89293810D02*
X49367570Y-89255710D01*
X60784810Y-88912860D02*
X60670520Y-88950950D01*
X60670520Y-88950950D02*
X60632430Y-88989050D01*
X60632430Y-88989050D02*
X60594330Y-89065240D01*
X60594330Y-89065240D02*
X60594330Y-89179520D01*
X60594330Y-89179520D02*
X60632430Y-89255710D01*
X60632430Y-89255710D02*
X60670520Y-89293810D01*
X60670520Y-89293810D02*
X60746710Y-89331900D01*
X60746710Y-89331900D02*
X61051480Y-89331900D01*
X61051480Y-89331900D02*
X61051480Y-88531900D01*
X61051480Y-88531900D02*
X60784810Y-88531900D01*
X60784810Y-88531900D02*
X60708620Y-88570000D01*
X60708620Y-88570000D02*
X60670520Y-88608100D01*
X60670520Y-88608100D02*
X60632430Y-88684290D01*
X60632430Y-88684290D02*
X60632430Y-88760480D01*
X60632430Y-88760480D02*
X60670520Y-88836670D01*
X60670520Y-88836670D02*
X60708620Y-88874760D01*
X60708620Y-88874760D02*
X60784810Y-88912860D01*
X60784810Y-88912860D02*
X61051480Y-88912860D01*
X59908620Y-88531900D02*
X60061000Y-88531900D01*
X60061000Y-88531900D02*
X60137190Y-88570000D01*
X60137190Y-88570000D02*
X60175290Y-88608100D01*
X60175290Y-88608100D02*
X60251480Y-88722380D01*
X60251480Y-88722380D02*
X60289570Y-88874760D01*
X60289570Y-88874760D02*
X60289570Y-89179520D01*
X60289570Y-89179520D02*
X60251480Y-89255710D01*
X60251480Y-89255710D02*
X60213380Y-89293810D01*
X60213380Y-89293810D02*
X60137190Y-89331900D01*
X60137190Y-89331900D02*
X59984810Y-89331900D01*
X59984810Y-89331900D02*
X59908620Y-89293810D01*
X59908620Y-89293810D02*
X59870520Y-89255710D01*
X59870520Y-89255710D02*
X59832430Y-89179520D01*
X59832430Y-89179520D02*
X59832430Y-88989050D01*
X59832430Y-88989050D02*
X59870520Y-88912860D01*
X59870520Y-88912860D02*
X59908620Y-88874760D01*
X59908620Y-88874760D02*
X59984810Y-88836670D01*
X59984810Y-88836670D02*
X60137190Y-88836670D01*
X60137190Y-88836670D02*
X60213380Y-88874760D01*
X60213380Y-88874760D02*
X60251480Y-88912860D01*
X60251480Y-88912860D02*
X60289570Y-88989050D01*
X60784810Y-83832860D02*
X60670520Y-83870950D01*
X60670520Y-83870950D02*
X60632430Y-83909050D01*
X60632430Y-83909050D02*
X60594330Y-83985240D01*
X60594330Y-83985240D02*
X60594330Y-84099520D01*
X60594330Y-84099520D02*
X60632430Y-84175710D01*
X60632430Y-84175710D02*
X60670520Y-84213810D01*
X60670520Y-84213810D02*
X60746710Y-84251900D01*
X60746710Y-84251900D02*
X61051480Y-84251900D01*
X61051480Y-84251900D02*
X61051480Y-83451900D01*
X61051480Y-83451900D02*
X60784810Y-83451900D01*
X60784810Y-83451900D02*
X60708620Y-83490000D01*
X60708620Y-83490000D02*
X60670520Y-83528100D01*
X60670520Y-83528100D02*
X60632430Y-83604290D01*
X60632430Y-83604290D02*
X60632430Y-83680480D01*
X60632430Y-83680480D02*
X60670520Y-83756670D01*
X60670520Y-83756670D02*
X60708620Y-83794760D01*
X60708620Y-83794760D02*
X60784810Y-83832860D01*
X60784810Y-83832860D02*
X61051480Y-83832860D01*
X60327670Y-83451900D02*
X59832430Y-83451900D01*
X59832430Y-83451900D02*
X60099100Y-83756670D01*
X60099100Y-83756670D02*
X59984810Y-83756670D01*
X59984810Y-83756670D02*
X59908620Y-83794760D01*
X59908620Y-83794760D02*
X59870520Y-83832860D01*
X59870520Y-83832860D02*
X59832430Y-83909050D01*
X59832430Y-83909050D02*
X59832430Y-84099520D01*
X59832430Y-84099520D02*
X59870520Y-84175710D01*
X59870520Y-84175710D02*
X59908620Y-84213810D01*
X59908620Y-84213810D02*
X59984810Y-84251900D01*
X59984810Y-84251900D02*
X60213380Y-84251900D01*
X60213380Y-84251900D02*
X60289570Y-84213810D01*
X60289570Y-84213810D02*
X60327670Y-84175710D01*
X60784810Y-81292860D02*
X60670520Y-81330950D01*
X60670520Y-81330950D02*
X60632430Y-81369050D01*
X60632430Y-81369050D02*
X60594330Y-81445240D01*
X60594330Y-81445240D02*
X60594330Y-81559520D01*
X60594330Y-81559520D02*
X60632430Y-81635710D01*
X60632430Y-81635710D02*
X60670520Y-81673810D01*
X60670520Y-81673810D02*
X60746710Y-81711900D01*
X60746710Y-81711900D02*
X61051480Y-81711900D01*
X61051480Y-81711900D02*
X61051480Y-80911900D01*
X61051480Y-80911900D02*
X60784810Y-80911900D01*
X60784810Y-80911900D02*
X60708620Y-80950000D01*
X60708620Y-80950000D02*
X60670520Y-80988100D01*
X60670520Y-80988100D02*
X60632430Y-81064290D01*
X60632430Y-81064290D02*
X60632430Y-81140480D01*
X60632430Y-81140480D02*
X60670520Y-81216670D01*
X60670520Y-81216670D02*
X60708620Y-81254760D01*
X60708620Y-81254760D02*
X60784810Y-81292860D01*
X60784810Y-81292860D02*
X61051480Y-81292860D01*
X59832430Y-81711900D02*
X60289570Y-81711900D01*
X60061000Y-81711900D02*
X60061000Y-80911900D01*
X60061000Y-80911900D02*
X60137190Y-81026190D01*
X60137190Y-81026190D02*
X60213380Y-81102380D01*
X60213380Y-81102380D02*
X60289570Y-81140480D01*
X60727670Y-71132860D02*
X60994330Y-71132860D01*
X60994330Y-71551900D02*
X60994330Y-70751900D01*
X60994330Y-70751900D02*
X60613380Y-70751900D01*
X59965760Y-71018570D02*
X59965760Y-71551900D01*
X60156240Y-70713810D02*
X60346710Y-71285240D01*
X60346710Y-71285240D02*
X59851480Y-71285240D01*
X61527670Y-68211900D02*
X61261000Y-69011900D01*
X61261000Y-69011900D02*
X60994330Y-68211900D01*
X60270520Y-68935710D02*
X60308620Y-68973810D01*
X60308620Y-68973810D02*
X60422900Y-69011900D01*
X60422900Y-69011900D02*
X60499100Y-69011900D01*
X60499100Y-69011900D02*
X60613380Y-68973810D01*
X60613380Y-68973810D02*
X60689570Y-68897620D01*
X60689570Y-68897620D02*
X60727670Y-68821430D01*
X60727670Y-68821430D02*
X60765760Y-68669050D01*
X60765760Y-68669050D02*
X60765760Y-68554760D01*
X60765760Y-68554760D02*
X60727670Y-68402380D01*
X60727670Y-68402380D02*
X60689570Y-68326190D01*
X60689570Y-68326190D02*
X60613380Y-68250000D01*
X60613380Y-68250000D02*
X60499100Y-68211900D01*
X60499100Y-68211900D02*
X60422900Y-68211900D01*
X60422900Y-68211900D02*
X60308620Y-68250000D01*
X60308620Y-68250000D02*
X60270520Y-68288100D01*
X59470520Y-68935710D02*
X59508620Y-68973810D01*
X59508620Y-68973810D02*
X59622900Y-69011900D01*
X59622900Y-69011900D02*
X59699100Y-69011900D01*
X59699100Y-69011900D02*
X59813380Y-68973810D01*
X59813380Y-68973810D02*
X59889570Y-68897620D01*
X59889570Y-68897620D02*
X59927670Y-68821430D01*
X59927670Y-68821430D02*
X59965760Y-68669050D01*
X59965760Y-68669050D02*
X59965760Y-68554760D01*
X59965760Y-68554760D02*
X59927670Y-68402380D01*
X59927670Y-68402380D02*
X59889570Y-68326190D01*
X59889570Y-68326190D02*
X59813380Y-68250000D01*
X59813380Y-68250000D02*
X59699100Y-68211900D01*
X59699100Y-68211900D02*
X59622900Y-68211900D01*
X59622900Y-68211900D02*
X59508620Y-68250000D01*
X59508620Y-68250000D02*
X59470520Y-68288100D01*
X61070520Y-63170000D02*
X61146710Y-63131900D01*
X61146710Y-63131900D02*
X61261000Y-63131900D01*
X61261000Y-63131900D02*
X61375290Y-63170000D01*
X61375290Y-63170000D02*
X61451480Y-63246190D01*
X61451480Y-63246190D02*
X61489570Y-63322380D01*
X61489570Y-63322380D02*
X61527670Y-63474760D01*
X61527670Y-63474760D02*
X61527670Y-63589050D01*
X61527670Y-63589050D02*
X61489570Y-63741430D01*
X61489570Y-63741430D02*
X61451480Y-63817620D01*
X61451480Y-63817620D02*
X61375290Y-63893810D01*
X61375290Y-63893810D02*
X61261000Y-63931900D01*
X61261000Y-63931900D02*
X61184810Y-63931900D01*
X61184810Y-63931900D02*
X61070520Y-63893810D01*
X61070520Y-63893810D02*
X61032430Y-63855710D01*
X61032430Y-63855710D02*
X61032430Y-63589050D01*
X61032430Y-63589050D02*
X61184810Y-63589050D01*
X60689570Y-63931900D02*
X60689570Y-63131900D01*
X60689570Y-63131900D02*
X60232430Y-63931900D01*
X60232430Y-63931900D02*
X60232430Y-63131900D01*
X59851480Y-63931900D02*
X59851480Y-63131900D01*
X59851480Y-63131900D02*
X59661000Y-63131900D01*
X59661000Y-63131900D02*
X59546710Y-63170000D01*
X59546710Y-63170000D02*
X59470520Y-63246190D01*
X59470520Y-63246190D02*
X59432430Y-63322380D01*
X59432430Y-63322380D02*
X59394330Y-63474760D01*
X59394330Y-63474760D02*
X59394330Y-63589050D01*
X59394330Y-63589050D02*
X59432430Y-63741430D01*
X59432430Y-63741430D02*
X59470520Y-63817620D01*
X59470520Y-63817620D02*
X59546710Y-63893810D01*
X59546710Y-63893810D02*
X59661000Y-63931900D01*
X59661000Y-63931900D02*
X59851480Y-63931900D01*
X61013380Y-61391900D02*
X61280050Y-61010950D01*
X61470520Y-61391900D02*
X61470520Y-60591900D01*
X61470520Y-60591900D02*
X61165760Y-60591900D01*
X61165760Y-60591900D02*
X61089570Y-60630000D01*
X61089570Y-60630000D02*
X61051480Y-60668100D01*
X61051480Y-60668100D02*
X61013380Y-60744290D01*
X61013380Y-60744290D02*
X61013380Y-60858570D01*
X61013380Y-60858570D02*
X61051480Y-60934760D01*
X61051480Y-60934760D02*
X61089570Y-60972860D01*
X61089570Y-60972860D02*
X61165760Y-61010950D01*
X61165760Y-61010950D02*
X61470520Y-61010950D01*
X60708620Y-61163330D02*
X60327670Y-61163330D01*
X60784810Y-61391900D02*
X60518140Y-60591900D01*
X60518140Y-60591900D02*
X60251480Y-61391900D01*
X60061000Y-60591900D02*
X59870520Y-61391900D01*
X59870520Y-61391900D02*
X59718140Y-60820480D01*
X59718140Y-60820480D02*
X59565760Y-61391900D01*
X59565760Y-61391900D02*
X59375290Y-60591900D01*
X60727670Y-73672860D02*
X60994330Y-73672860D01*
X60994330Y-74091900D02*
X60994330Y-73291900D01*
X60994330Y-73291900D02*
X60613380Y-73291900D01*
X59927670Y-73291900D02*
X60308620Y-73291900D01*
X60308620Y-73291900D02*
X60346710Y-73672860D01*
X60346710Y-73672860D02*
X60308620Y-73634760D01*
X60308620Y-73634760D02*
X60232430Y-73596670D01*
X60232430Y-73596670D02*
X60041950Y-73596670D01*
X60041950Y-73596670D02*
X59965760Y-73634760D01*
X59965760Y-73634760D02*
X59927670Y-73672860D01*
X59927670Y-73672860D02*
X59889570Y-73749050D01*
X59889570Y-73749050D02*
X59889570Y-73939520D01*
X59889570Y-73939520D02*
X59927670Y-74015710D01*
X59927670Y-74015710D02*
X59965760Y-74053810D01*
X59965760Y-74053810D02*
X60041950Y-74091900D01*
X60041950Y-74091900D02*
X60232430Y-74091900D01*
X60232430Y-74091900D02*
X60308620Y-74053810D01*
X60308620Y-74053810D02*
X60346710Y-74015710D01*
X60727670Y-76212860D02*
X60994330Y-76212860D01*
X60994330Y-76631900D02*
X60994330Y-75831900D01*
X60994330Y-75831900D02*
X60613380Y-75831900D01*
X59965760Y-75831900D02*
X60118140Y-75831900D01*
X60118140Y-75831900D02*
X60194330Y-75870000D01*
X60194330Y-75870000D02*
X60232430Y-75908100D01*
X60232430Y-75908100D02*
X60308620Y-76022380D01*
X60308620Y-76022380D02*
X60346710Y-76174760D01*
X60346710Y-76174760D02*
X60346710Y-76479520D01*
X60346710Y-76479520D02*
X60308620Y-76555710D01*
X60308620Y-76555710D02*
X60270520Y-76593810D01*
X60270520Y-76593810D02*
X60194330Y-76631900D01*
X60194330Y-76631900D02*
X60041950Y-76631900D01*
X60041950Y-76631900D02*
X59965760Y-76593810D01*
X59965760Y-76593810D02*
X59927670Y-76555710D01*
X59927670Y-76555710D02*
X59889570Y-76479520D01*
X59889570Y-76479520D02*
X59889570Y-76289050D01*
X59889570Y-76289050D02*
X59927670Y-76212860D01*
X59927670Y-76212860D02*
X59965760Y-76174760D01*
X59965760Y-76174760D02*
X60041950Y-76136670D01*
X60041950Y-76136670D02*
X60194330Y-76136670D01*
X60194330Y-76136670D02*
X60270520Y-76174760D01*
X60270520Y-76174760D02*
X60308620Y-76212860D01*
X60308620Y-76212860D02*
X60346710Y-76289050D01*
X60727670Y-78752860D02*
X60994330Y-78752860D01*
X60994330Y-79171900D02*
X60994330Y-78371900D01*
X60994330Y-78371900D02*
X60613380Y-78371900D01*
X60384810Y-78371900D02*
X59851480Y-78371900D01*
X59851480Y-78371900D02*
X60194330Y-79171900D01*
X60784810Y-86372860D02*
X60670520Y-86410950D01*
X60670520Y-86410950D02*
X60632430Y-86449050D01*
X60632430Y-86449050D02*
X60594330Y-86525240D01*
X60594330Y-86525240D02*
X60594330Y-86639520D01*
X60594330Y-86639520D02*
X60632430Y-86715710D01*
X60632430Y-86715710D02*
X60670520Y-86753810D01*
X60670520Y-86753810D02*
X60746710Y-86791900D01*
X60746710Y-86791900D02*
X61051480Y-86791900D01*
X61051480Y-86791900D02*
X61051480Y-85991900D01*
X61051480Y-85991900D02*
X60784810Y-85991900D01*
X60784810Y-85991900D02*
X60708620Y-86030000D01*
X60708620Y-86030000D02*
X60670520Y-86068100D01*
X60670520Y-86068100D02*
X60632430Y-86144290D01*
X60632430Y-86144290D02*
X60632430Y-86220480D01*
X60632430Y-86220480D02*
X60670520Y-86296670D01*
X60670520Y-86296670D02*
X60708620Y-86334760D01*
X60708620Y-86334760D02*
X60784810Y-86372860D01*
X60784810Y-86372860D02*
X61051480Y-86372860D01*
X60289570Y-86068100D02*
X60251480Y-86030000D01*
X60251480Y-86030000D02*
X60175290Y-85991900D01*
X60175290Y-85991900D02*
X59984810Y-85991900D01*
X59984810Y-85991900D02*
X59908620Y-86030000D01*
X59908620Y-86030000D02*
X59870520Y-86068100D01*
X59870520Y-86068100D02*
X59832430Y-86144290D01*
X59832430Y-86144290D02*
X59832430Y-86220480D01*
X59832430Y-86220480D02*
X59870520Y-86334760D01*
X59870520Y-86334760D02*
X60327670Y-86791900D01*
X60327670Y-86791900D02*
X59832430Y-86791900D01*
X53618600Y-60591900D02*
X53161460Y-60591900D01*
X53390030Y-61391900D02*
X53390030Y-60591900D01*
X52970990Y-60591900D02*
X52437650Y-61391900D01*
X52437650Y-60591900D02*
X52970990Y-61391900D01*
X51980510Y-60591900D02*
X51904320Y-60591900D01*
X51904320Y-60591900D02*
X51828130Y-60630000D01*
X51828130Y-60630000D02*
X51790030Y-60668100D01*
X51790030Y-60668100D02*
X51751940Y-60744290D01*
X51751940Y-60744290D02*
X51713840Y-60896670D01*
X51713840Y-60896670D02*
X51713840Y-61087140D01*
X51713840Y-61087140D02*
X51751940Y-61239520D01*
X51751940Y-61239520D02*
X51790030Y-61315710D01*
X51790030Y-61315710D02*
X51828130Y-61353810D01*
X51828130Y-61353810D02*
X51904320Y-61391900D01*
X51904320Y-61391900D02*
X51980510Y-61391900D01*
X51980510Y-61391900D02*
X52056700Y-61353810D01*
X52056700Y-61353810D02*
X52094790Y-61315710D01*
X52094790Y-61315710D02*
X52132890Y-61239520D01*
X52132890Y-61239520D02*
X52170990Y-61087140D01*
X52170990Y-61087140D02*
X52170990Y-60896670D01*
X52170990Y-60896670D02*
X52132890Y-60744290D01*
X52132890Y-60744290D02*
X52094790Y-60668100D01*
X52094790Y-60668100D02*
X52056700Y-60630000D01*
X52056700Y-60630000D02*
X51980510Y-60591900D01*
X50799560Y-60553810D02*
X51485270Y-61582380D01*
X50532890Y-61391900D02*
X50532890Y-60591900D01*
X50532890Y-60591900D02*
X50342410Y-60591900D01*
X50342410Y-60591900D02*
X50228130Y-60630000D01*
X50228130Y-60630000D02*
X50151940Y-60706190D01*
X50151940Y-60706190D02*
X50113840Y-60782380D01*
X50113840Y-60782380D02*
X50075750Y-60934760D01*
X50075750Y-60934760D02*
X50075750Y-61049050D01*
X50075750Y-61049050D02*
X50113840Y-61201430D01*
X50113840Y-61201430D02*
X50151940Y-61277620D01*
X50151940Y-61277620D02*
X50228130Y-61353810D01*
X50228130Y-61353810D02*
X50342410Y-61391900D01*
X50342410Y-61391900D02*
X50532890Y-61391900D01*
X49809080Y-60591900D02*
X49313840Y-60591900D01*
X49313840Y-60591900D02*
X49580510Y-60896670D01*
X49580510Y-60896670D02*
X49466220Y-60896670D01*
X49466220Y-60896670D02*
X49390030Y-60934760D01*
X49390030Y-60934760D02*
X49351940Y-60972860D01*
X49351940Y-60972860D02*
X49313840Y-61049050D01*
X49313840Y-61049050D02*
X49313840Y-61239520D01*
X49313840Y-61239520D02*
X49351940Y-61315710D01*
X49351940Y-61315710D02*
X49390030Y-61353810D01*
X49390030Y-61353810D02*
X49466220Y-61391900D01*
X49466220Y-61391900D02*
X49694790Y-61391900D01*
X49694790Y-61391900D02*
X49770990Y-61353810D01*
X49770990Y-61353810D02*
X49809080Y-61315710D01*
X60573330Y-66413810D02*
X60459050Y-66451900D01*
X60459050Y-66451900D02*
X60268570Y-66451900D01*
X60268570Y-66451900D02*
X60192380Y-66413810D01*
X60192380Y-66413810D02*
X60154290Y-66375710D01*
X60154290Y-66375710D02*
X60116190Y-66299520D01*
X60116190Y-66299520D02*
X60116190Y-66223330D01*
X60116190Y-66223330D02*
X60154290Y-66147140D01*
X60154290Y-66147140D02*
X60192380Y-66109050D01*
X60192380Y-66109050D02*
X60268570Y-66070950D01*
X60268570Y-66070950D02*
X60420950Y-66032860D01*
X60420950Y-66032860D02*
X60497140Y-65994760D01*
X60497140Y-65994760D02*
X60535240Y-65956670D01*
X60535240Y-65956670D02*
X60573330Y-65880480D01*
X60573330Y-65880480D02*
X60573330Y-65804290D01*
X60573330Y-65804290D02*
X60535240Y-65728100D01*
X60535240Y-65728100D02*
X60497140Y-65690000D01*
X60497140Y-65690000D02*
X60420950Y-65651900D01*
X60420950Y-65651900D02*
X60230480Y-65651900D01*
X60230480Y-65651900D02*
X60116190Y-65690000D01*
X59887620Y-65651900D02*
X59430480Y-65651900D01*
X59659050Y-66451900D02*
X59659050Y-65651900D01*
X47986900Y-97114580D02*
X47186900Y-97114580D01*
X47186900Y-97114580D02*
X47186900Y-97281250D01*
X47186900Y-97281250D02*
X47225000Y-97381250D01*
X47225000Y-97381250D02*
X47301190Y-97447920D01*
X47301190Y-97447920D02*
X47377380Y-97481250D01*
X47377380Y-97481250D02*
X47529760Y-97514580D01*
X47529760Y-97514580D02*
X47644050Y-97514580D01*
X47644050Y-97514580D02*
X47796430Y-97481250D01*
X47796430Y-97481250D02*
X47872620Y-97447920D01*
X47872620Y-97447920D02*
X47948810Y-97381250D01*
X47948810Y-97381250D02*
X47986900Y-97281250D01*
X47986900Y-97281250D02*
X47986900Y-97114580D01*
X47986900Y-98181250D02*
X47986900Y-97781250D01*
X47986900Y-97981250D02*
X47186900Y-97981250D01*
X47186900Y-97981250D02*
X47301190Y-97914580D01*
X47301190Y-97914580D02*
X47377380Y-97847920D01*
X47377380Y-97847920D02*
X47415480Y-97781250D01*
X52749400Y-97114580D02*
X51949400Y-97114580D01*
X51949400Y-97114580D02*
X51949400Y-97281250D01*
X51949400Y-97281250D02*
X51987500Y-97381250D01*
X51987500Y-97381250D02*
X52063690Y-97447920D01*
X52063690Y-97447920D02*
X52139880Y-97481250D01*
X52139880Y-97481250D02*
X52292260Y-97514580D01*
X52292260Y-97514580D02*
X52406550Y-97514580D01*
X52406550Y-97514580D02*
X52558930Y-97481250D01*
X52558930Y-97481250D02*
X52635120Y-97447920D01*
X52635120Y-97447920D02*
X52711310Y-97381250D01*
X52711310Y-97381250D02*
X52749400Y-97281250D01*
X52749400Y-97281250D02*
X52749400Y-97114580D01*
X52025600Y-97781250D02*
X51987500Y-97814580D01*
X51987500Y-97814580D02*
X51949400Y-97881250D01*
X51949400Y-97881250D02*
X51949400Y-98047920D01*
X51949400Y-98047920D02*
X51987500Y-98114580D01*
X51987500Y-98114580D02*
X52025600Y-98147920D01*
X52025600Y-98147920D02*
X52101790Y-98181250D01*
X52101790Y-98181250D02*
X52177980Y-98181250D01*
X52177980Y-98181250D02*
X52292260Y-98147920D01*
X52292260Y-98147920D02*
X52749400Y-97747920D01*
X52749400Y-97747920D02*
X52749400Y-98181250D01*
X57511900Y-97114580D02*
X56711900Y-97114580D01*
X56711900Y-97114580D02*
X56711900Y-97281250D01*
X56711900Y-97281250D02*
X56750000Y-97381250D01*
X56750000Y-97381250D02*
X56826190Y-97447920D01*
X56826190Y-97447920D02*
X56902380Y-97481250D01*
X56902380Y-97481250D02*
X57054760Y-97514580D01*
X57054760Y-97514580D02*
X57169050Y-97514580D01*
X57169050Y-97514580D02*
X57321430Y-97481250D01*
X57321430Y-97481250D02*
X57397620Y-97447920D01*
X57397620Y-97447920D02*
X57473810Y-97381250D01*
X57473810Y-97381250D02*
X57511900Y-97281250D01*
X57511900Y-97281250D02*
X57511900Y-97114580D01*
X56711900Y-97747920D02*
X56711900Y-98181250D01*
X56711900Y-98181250D02*
X57016670Y-97947920D01*
X57016670Y-97947920D02*
X57016670Y-98047920D01*
X57016670Y-98047920D02*
X57054760Y-98114580D01*
X57054760Y-98114580D02*
X57092860Y-98147920D01*
X57092860Y-98147920D02*
X57169050Y-98181250D01*
X57169050Y-98181250D02*
X57359520Y-98181250D01*
X57359520Y-98181250D02*
X57435710Y-98147920D01*
X57435710Y-98147920D02*
X57473810Y-98114580D01*
X57473810Y-98114580D02*
X57511900Y-98047920D01*
X57511900Y-98047920D02*
X57511900Y-97847920D01*
X57511900Y-97847920D02*
X57473810Y-97781250D01*
X57473810Y-97781250D02*
X57435710Y-97747920D01*
X47986900Y-109020830D02*
X47186900Y-109020830D01*
X47186900Y-109020830D02*
X47186900Y-109187500D01*
X47186900Y-109187500D02*
X47225000Y-109287500D01*
X47225000Y-109287500D02*
X47301190Y-109354170D01*
X47301190Y-109354170D02*
X47377380Y-109387500D01*
X47377380Y-109387500D02*
X47529760Y-109420830D01*
X47529760Y-109420830D02*
X47644050Y-109420830D01*
X47644050Y-109420830D02*
X47796430Y-109387500D01*
X47796430Y-109387500D02*
X47872620Y-109354170D01*
X47872620Y-109354170D02*
X47948810Y-109287500D01*
X47948810Y-109287500D02*
X47986900Y-109187500D01*
X47986900Y-109187500D02*
X47986900Y-109020830D01*
X47186900Y-110054170D02*
X47186900Y-109720830D01*
X47186900Y-109720830D02*
X47567860Y-109687500D01*
X47567860Y-109687500D02*
X47529760Y-109720830D01*
X47529760Y-109720830D02*
X47491670Y-109787500D01*
X47491670Y-109787500D02*
X47491670Y-109954170D01*
X47491670Y-109954170D02*
X47529760Y-110020830D01*
X47529760Y-110020830D02*
X47567860Y-110054170D01*
X47567860Y-110054170D02*
X47644050Y-110087500D01*
X47644050Y-110087500D02*
X47834520Y-110087500D01*
X47834520Y-110087500D02*
X47910710Y-110054170D01*
X47910710Y-110054170D02*
X47948810Y-110020830D01*
X47948810Y-110020830D02*
X47986900Y-109954170D01*
X47986900Y-109954170D02*
X47986900Y-109787500D01*
X47986900Y-109787500D02*
X47948810Y-109720830D01*
X47948810Y-109720830D02*
X47910710Y-109687500D01*
X52749400Y-109020830D02*
X51949400Y-109020830D01*
X51949400Y-109020830D02*
X51949400Y-109187500D01*
X51949400Y-109187500D02*
X51987500Y-109287500D01*
X51987500Y-109287500D02*
X52063690Y-109354170D01*
X52063690Y-109354170D02*
X52139880Y-109387500D01*
X52139880Y-109387500D02*
X52292260Y-109420830D01*
X52292260Y-109420830D02*
X52406550Y-109420830D01*
X52406550Y-109420830D02*
X52558930Y-109387500D01*
X52558930Y-109387500D02*
X52635120Y-109354170D01*
X52635120Y-109354170D02*
X52711310Y-109287500D01*
X52711310Y-109287500D02*
X52749400Y-109187500D01*
X52749400Y-109187500D02*
X52749400Y-109020830D01*
X51949400Y-110020830D02*
X51949400Y-109887500D01*
X51949400Y-109887500D02*
X51987500Y-109820830D01*
X51987500Y-109820830D02*
X52025600Y-109787500D01*
X52025600Y-109787500D02*
X52139880Y-109720830D01*
X52139880Y-109720830D02*
X52292260Y-109687500D01*
X52292260Y-109687500D02*
X52597020Y-109687500D01*
X52597020Y-109687500D02*
X52673210Y-109720830D01*
X52673210Y-109720830D02*
X52711310Y-109754170D01*
X52711310Y-109754170D02*
X52749400Y-109820830D01*
X52749400Y-109820830D02*
X52749400Y-109954170D01*
X52749400Y-109954170D02*
X52711310Y-110020830D01*
X52711310Y-110020830D02*
X52673210Y-110054170D01*
X52673210Y-110054170D02*
X52597020Y-110087500D01*
X52597020Y-110087500D02*
X52406550Y-110087500D01*
X52406550Y-110087500D02*
X52330360Y-110054170D01*
X52330360Y-110054170D02*
X52292260Y-110020830D01*
X52292260Y-110020830D02*
X52254170Y-109954170D01*
X52254170Y-109954170D02*
X52254170Y-109820830D01*
X52254170Y-109820830D02*
X52292260Y-109754170D01*
X52292260Y-109754170D02*
X52330360Y-109720830D01*
X52330360Y-109720830D02*
X52406550Y-109687500D01*
X57511900Y-109020830D02*
X56711900Y-109020830D01*
X56711900Y-109020830D02*
X56711900Y-109187500D01*
X56711900Y-109187500D02*
X56750000Y-109287500D01*
X56750000Y-109287500D02*
X56826190Y-109354170D01*
X56826190Y-109354170D02*
X56902380Y-109387500D01*
X56902380Y-109387500D02*
X57054760Y-109420830D01*
X57054760Y-109420830D02*
X57169050Y-109420830D01*
X57169050Y-109420830D02*
X57321430Y-109387500D01*
X57321430Y-109387500D02*
X57397620Y-109354170D01*
X57397620Y-109354170D02*
X57473810Y-109287500D01*
X57473810Y-109287500D02*
X57511900Y-109187500D01*
X57511900Y-109187500D02*
X57511900Y-109020830D01*
X56711900Y-109654170D02*
X56711900Y-110120830D01*
X56711900Y-110120830D02*
X57511900Y-109820830D01*
X62274400Y-109020830D02*
X61474400Y-109020830D01*
X61474400Y-109020830D02*
X61474400Y-109187500D01*
X61474400Y-109187500D02*
X61512500Y-109287500D01*
X61512500Y-109287500D02*
X61588690Y-109354170D01*
X61588690Y-109354170D02*
X61664880Y-109387500D01*
X61664880Y-109387500D02*
X61817260Y-109420830D01*
X61817260Y-109420830D02*
X61931550Y-109420830D01*
X61931550Y-109420830D02*
X62083930Y-109387500D01*
X62083930Y-109387500D02*
X62160120Y-109354170D01*
X62160120Y-109354170D02*
X62236310Y-109287500D01*
X62236310Y-109287500D02*
X62274400Y-109187500D01*
X62274400Y-109187500D02*
X62274400Y-109020830D01*
X61817260Y-109820830D02*
X61779170Y-109754170D01*
X61779170Y-109754170D02*
X61741070Y-109720830D01*
X61741070Y-109720830D02*
X61664880Y-109687500D01*
X61664880Y-109687500D02*
X61626790Y-109687500D01*
X61626790Y-109687500D02*
X61550600Y-109720830D01*
X61550600Y-109720830D02*
X61512500Y-109754170D01*
X61512500Y-109754170D02*
X61474400Y-109820830D01*
X61474400Y-109820830D02*
X61474400Y-109954170D01*
X61474400Y-109954170D02*
X61512500Y-110020830D01*
X61512500Y-110020830D02*
X61550600Y-110054170D01*
X61550600Y-110054170D02*
X61626790Y-110087500D01*
X61626790Y-110087500D02*
X61664880Y-110087500D01*
X61664880Y-110087500D02*
X61741070Y-110054170D01*
X61741070Y-110054170D02*
X61779170Y-110020830D01*
X61779170Y-110020830D02*
X61817260Y-109954170D01*
X61817260Y-109954170D02*
X61817260Y-109820830D01*
X61817260Y-109820830D02*
X61855360Y-109754170D01*
X61855360Y-109754170D02*
X61893450Y-109720830D01*
X61893450Y-109720830D02*
X61969640Y-109687500D01*
X61969640Y-109687500D02*
X62122020Y-109687500D01*
X62122020Y-109687500D02*
X62198210Y-109720830D01*
X62198210Y-109720830D02*
X62236310Y-109754170D01*
X62236310Y-109754170D02*
X62274400Y-109820830D01*
X62274400Y-109820830D02*
X62274400Y-109954170D01*
X62274400Y-109954170D02*
X62236310Y-110020830D01*
X62236310Y-110020830D02*
X62198210Y-110054170D01*
X62198210Y-110054170D02*
X62122020Y-110087500D01*
X62122020Y-110087500D02*
X61969640Y-110087500D01*
X61969640Y-110087500D02*
X61893450Y-110054170D01*
X61893450Y-110054170D02*
X61855360Y-110020830D01*
X61855360Y-110020830D02*
X61817260Y-109954170D01*
X47986900Y-120927080D02*
X47186900Y-120927080D01*
X47186900Y-120927080D02*
X47186900Y-121093750D01*
X47186900Y-121093750D02*
X47225000Y-121193750D01*
X47225000Y-121193750D02*
X47301190Y-121260420D01*
X47301190Y-121260420D02*
X47377380Y-121293750D01*
X47377380Y-121293750D02*
X47529760Y-121327080D01*
X47529760Y-121327080D02*
X47644050Y-121327080D01*
X47644050Y-121327080D02*
X47796430Y-121293750D01*
X47796430Y-121293750D02*
X47872620Y-121260420D01*
X47872620Y-121260420D02*
X47948810Y-121193750D01*
X47948810Y-121193750D02*
X47986900Y-121093750D01*
X47986900Y-121093750D02*
X47986900Y-120927080D01*
X47986900Y-121660420D02*
X47986900Y-121793750D01*
X47986900Y-121793750D02*
X47948810Y-121860420D01*
X47948810Y-121860420D02*
X47910710Y-121893750D01*
X47910710Y-121893750D02*
X47796430Y-121960420D01*
X47796430Y-121960420D02*
X47644050Y-121993750D01*
X47644050Y-121993750D02*
X47339290Y-121993750D01*
X47339290Y-121993750D02*
X47263100Y-121960420D01*
X47263100Y-121960420D02*
X47225000Y-121927080D01*
X47225000Y-121927080D02*
X47186900Y-121860420D01*
X47186900Y-121860420D02*
X47186900Y-121727080D01*
X47186900Y-121727080D02*
X47225000Y-121660420D01*
X47225000Y-121660420D02*
X47263100Y-121627080D01*
X47263100Y-121627080D02*
X47339290Y-121593750D01*
X47339290Y-121593750D02*
X47529760Y-121593750D01*
X47529760Y-121593750D02*
X47605950Y-121627080D01*
X47605950Y-121627080D02*
X47644050Y-121660420D01*
X47644050Y-121660420D02*
X47682140Y-121727080D01*
X47682140Y-121727080D02*
X47682140Y-121860420D01*
X47682140Y-121860420D02*
X47644050Y-121927080D01*
X47644050Y-121927080D02*
X47605950Y-121960420D01*
X47605950Y-121960420D02*
X47529760Y-121993750D01*
X52749400Y-120593750D02*
X51949400Y-120593750D01*
X51949400Y-120593750D02*
X51949400Y-120760420D01*
X51949400Y-120760420D02*
X51987500Y-120860420D01*
X51987500Y-120860420D02*
X52063690Y-120927080D01*
X52063690Y-120927080D02*
X52139880Y-120960420D01*
X52139880Y-120960420D02*
X52292260Y-120993750D01*
X52292260Y-120993750D02*
X52406550Y-120993750D01*
X52406550Y-120993750D02*
X52558930Y-120960420D01*
X52558930Y-120960420D02*
X52635120Y-120927080D01*
X52635120Y-120927080D02*
X52711310Y-120860420D01*
X52711310Y-120860420D02*
X52749400Y-120760420D01*
X52749400Y-120760420D02*
X52749400Y-120593750D01*
X52749400Y-121660420D02*
X52749400Y-121260420D01*
X52749400Y-121460420D02*
X51949400Y-121460420D01*
X51949400Y-121460420D02*
X52063690Y-121393750D01*
X52063690Y-121393750D02*
X52139880Y-121327080D01*
X52139880Y-121327080D02*
X52177980Y-121260420D01*
X51949400Y-122093750D02*
X51949400Y-122160420D01*
X51949400Y-122160420D02*
X51987500Y-122227080D01*
X51987500Y-122227080D02*
X52025600Y-122260420D01*
X52025600Y-122260420D02*
X52101790Y-122293750D01*
X52101790Y-122293750D02*
X52254170Y-122327080D01*
X52254170Y-122327080D02*
X52444640Y-122327080D01*
X52444640Y-122327080D02*
X52597020Y-122293750D01*
X52597020Y-122293750D02*
X52673210Y-122260420D01*
X52673210Y-122260420D02*
X52711310Y-122227080D01*
X52711310Y-122227080D02*
X52749400Y-122160420D01*
X52749400Y-122160420D02*
X52749400Y-122093750D01*
X52749400Y-122093750D02*
X52711310Y-122027080D01*
X52711310Y-122027080D02*
X52673210Y-121993750D01*
X52673210Y-121993750D02*
X52597020Y-121960420D01*
X52597020Y-121960420D02*
X52444640Y-121927080D01*
X52444640Y-121927080D02*
X52254170Y-121927080D01*
X52254170Y-121927080D02*
X52101790Y-121960420D01*
X52101790Y-121960420D02*
X52025600Y-121993750D01*
X52025600Y-121993750D02*
X51987500Y-122027080D01*
X51987500Y-122027080D02*
X51949400Y-122093750D01*
X57511900Y-120593750D02*
X56711900Y-120593750D01*
X56711900Y-120593750D02*
X56711900Y-120760420D01*
X56711900Y-120760420D02*
X56750000Y-120860420D01*
X56750000Y-120860420D02*
X56826190Y-120927080D01*
X56826190Y-120927080D02*
X56902380Y-120960420D01*
X56902380Y-120960420D02*
X57054760Y-120993750D01*
X57054760Y-120993750D02*
X57169050Y-120993750D01*
X57169050Y-120993750D02*
X57321430Y-120960420D01*
X57321430Y-120960420D02*
X57397620Y-120927080D01*
X57397620Y-120927080D02*
X57473810Y-120860420D01*
X57473810Y-120860420D02*
X57511900Y-120760420D01*
X57511900Y-120760420D02*
X57511900Y-120593750D01*
X57511900Y-121660420D02*
X57511900Y-121260420D01*
X57511900Y-121460420D02*
X56711900Y-121460420D01*
X56711900Y-121460420D02*
X56826190Y-121393750D01*
X56826190Y-121393750D02*
X56902380Y-121327080D01*
X56902380Y-121327080D02*
X56940480Y-121260420D01*
X57511900Y-122327080D02*
X57511900Y-121927080D01*
X57511900Y-122127080D02*
X56711900Y-122127080D01*
X56711900Y-122127080D02*
X56826190Y-122060420D01*
X56826190Y-122060420D02*
X56902380Y-121993750D01*
X56902380Y-121993750D02*
X56940480Y-121927080D01*
X62274400Y-120593750D02*
X61474400Y-120593750D01*
X61474400Y-120593750D02*
X61474400Y-120760420D01*
X61474400Y-120760420D02*
X61512500Y-120860420D01*
X61512500Y-120860420D02*
X61588690Y-120927080D01*
X61588690Y-120927080D02*
X61664880Y-120960420D01*
X61664880Y-120960420D02*
X61817260Y-120993750D01*
X61817260Y-120993750D02*
X61931550Y-120993750D01*
X61931550Y-120993750D02*
X62083930Y-120960420D01*
X62083930Y-120960420D02*
X62160120Y-120927080D01*
X62160120Y-120927080D02*
X62236310Y-120860420D01*
X62236310Y-120860420D02*
X62274400Y-120760420D01*
X62274400Y-120760420D02*
X62274400Y-120593750D01*
X62274400Y-121660420D02*
X62274400Y-121260420D01*
X62274400Y-121460420D02*
X61474400Y-121460420D01*
X61474400Y-121460420D02*
X61588690Y-121393750D01*
X61588690Y-121393750D02*
X61664880Y-121327080D01*
X61664880Y-121327080D02*
X61702980Y-121260420D01*
X61550600Y-121927080D02*
X61512500Y-121960420D01*
X61512500Y-121960420D02*
X61474400Y-122027080D01*
X61474400Y-122027080D02*
X61474400Y-122193750D01*
X61474400Y-122193750D02*
X61512500Y-122260420D01*
X61512500Y-122260420D02*
X61550600Y-122293750D01*
X61550600Y-122293750D02*
X61626790Y-122327080D01*
X61626790Y-122327080D02*
X61702980Y-122327080D01*
X61702980Y-122327080D02*
X61817260Y-122293750D01*
X61817260Y-122293750D02*
X62274400Y-121893750D01*
X62274400Y-121893750D02*
X62274400Y-122327080D01*
M02*
