M48
; DRILL file {KiCad (5.1.2)-1} date 5/28/2019 9:21:52 PM
; FORMAT={-:-/ absolute / inch / decimal}
; #@! TF.CreationDate,2019-05-28T21:21:52-05:00
; #@! TF.GenerationSoftware,Kicad,Pcbnew,(5.1.2)-1
; #@! TF.FileFunction,Plated,1,2,PTH
FMAT,2
INCH
T1C0.0157
%
G90
G05
T1
X1.7165Y-2.0906
X1.7165Y-5.315
X1.8564Y-2.4028
X1.8564Y-2.6028
X1.8564Y-2.8028
X1.8564Y-3.0028
X1.8564Y-3.2028
X1.8564Y-3.4028
X1.8564Y-2.4028
X1.8564Y-2.6028
X1.8564Y-2.8028
X1.8564Y-3.0028
X1.8564Y-3.2028
X1.8564Y-3.4028
X1.8744Y-2.5028
X1.8744Y-2.7028
X1.8744Y-2.9028
X1.8744Y-3.1028
X1.8744Y-3.3028
X1.8744Y-3.5028
X1.8744Y-2.5028
X1.8744Y-2.7028
X1.8744Y-2.9028
X1.8744Y-3.1028
X1.8744Y-3.3028
X1.8744Y-3.5028
X1.875Y-3.6863
X1.875Y-3.6863
X1.875Y-4.0012
X1.875Y-4.0012
X1.875Y-4.155
X1.875Y-4.155
X1.875Y-4.47
X1.875Y-4.47
X1.875Y-4.6238
X1.875Y-4.6238
X1.875Y-4.9387
X1.875Y-4.9387
X2.0625Y-3.6863
X2.0625Y-3.6863
X2.0625Y-4.0012
X2.0625Y-4.0012
X2.0625Y-4.155
X2.0625Y-4.155
X2.0625Y-4.47
X2.0625Y-4.47
X2.0625Y-4.6238
X2.0625Y-4.6238
X2.0625Y-4.9387
X2.0625Y-4.9387
X2.25Y-3.6863
X2.25Y-3.6863
X2.25Y-4.0012
X2.25Y-4.0012
X2.25Y-4.155
X2.25Y-4.155
X2.25Y-4.47
X2.25Y-4.47
X2.25Y-4.6238
X2.25Y-4.6238
X2.25Y-4.9387
X2.25Y-4.9387
X2.4375Y-3.6863
X2.4375Y-3.6863
X2.4375Y-4.0012
X2.4375Y-4.0012
X2.4375Y-4.155
X2.4375Y-4.155
X2.4375Y-4.47
X2.4375Y-4.47
X2.4375Y-4.6238
X2.4375Y-4.6238
X2.4375Y-4.9387
X2.4375Y-4.9387
X2.4564Y-2.5028
X2.4564Y-2.7028
X2.4564Y-2.9028
X2.4564Y-3.1028
X2.4564Y-3.3028
X2.4564Y-3.5028
X2.4564Y-2.5028
X2.4564Y-2.7028
X2.4564Y-2.9028
X2.4564Y-3.1028
X2.4564Y-3.3028
X2.4564Y-3.5028
X2.4744Y-2.4028
X2.4744Y-2.6028
X2.4744Y-2.8028
X2.4744Y-3.0028
X2.4744Y-3.2028
X2.4744Y-3.4028
X2.4744Y-2.4028
X2.4744Y-2.6028
X2.4744Y-2.8028
X2.4744Y-3.0028
X2.4744Y-3.2028
X2.4744Y-3.4028
X2.7835Y-2.5312
X2.7835Y-3.2812
X2.7835Y-4.0312
X2.7835Y-4.7812
X2.7945Y-2.6966
X2.7945Y-3.4466
X2.7945Y-4.1966
X2.7945Y-4.9466
X2.8Y-2.5312
X2.8Y-3.2812
X2.8Y-4.0312
X2.8Y-4.7812
X2.85Y-2.4312
X2.85Y-3.1812
X2.85Y-3.9312
X2.85Y-4.6812
X2.8758Y-2.4025
X2.8758Y-3.1525
X2.8758Y-3.9025
X2.8758Y-4.6525
X2.9016Y-2.3738
X2.9016Y-3.1238
X2.9016Y-3.8738
X2.9016Y-4.6238
X2.9016Y-2.3738
X2.9016Y-3.1238
X2.9016Y-3.8738
X2.9016Y-4.6238
X3.0Y-2.3344
X3.0Y-2.3344
X3.0Y-2.5312
X3.0Y-3.0844
X3.0Y-3.0844
X3.0Y-3.2812
X3.0Y-3.8344
X3.0Y-3.8344
X3.0Y-4.0312
X3.0Y-4.5844
X3.0Y-4.5844
X3.0Y-4.7812
X3.0984Y-2.3541
X3.0984Y-3.1041
X3.0984Y-3.8541
X3.0984Y-4.6041
X3.0992Y-2.3427
X3.0992Y-3.0927
X3.0992Y-3.8427
X3.0992Y-4.5927
X3.1Y-2.3312
X3.1Y-2.3312
X3.1Y-3.0812
X3.1Y-3.0812
X3.1Y-3.8312
X3.1Y-3.8312
X3.1Y-4.5812
X3.1Y-4.5812
X3.1969Y-2.3816
X3.1969Y-3.1316
X3.1969Y-3.8816
X3.1969Y-4.6316
X3.1969Y-2.3816
X3.1969Y-3.1316
X3.1969Y-3.8816
X3.1969Y-4.6316
X3.2Y-2.5312
X3.2Y-3.2812
X3.2Y-4.0312
X3.2Y-4.7812
X3.2165Y-2.5312
X3.2165Y-3.2812
X3.2165Y-4.0312
X3.2165Y-4.7812
X3.5335Y-2.5312
X3.5335Y-3.2812
X3.5335Y-4.0312
X3.5335Y-4.7812
X3.5445Y-2.6966
X3.5445Y-3.4466
X3.5445Y-4.1966
X3.5445Y-4.9466
X3.55Y-2.5312
X3.55Y-3.2812
X3.55Y-4.0312
X3.55Y-4.7812
X3.6Y-2.4312
X3.6Y-3.1812
X3.6Y-3.9312
X3.6Y-4.6812
X3.6118Y-5.1579
X3.6118Y-5.1579
X3.6258Y-2.4025
X3.6258Y-3.1525
X3.6258Y-3.9025
X3.6258Y-4.6525
X3.6516Y-2.3738
X3.6516Y-3.1238
X3.6516Y-3.8738
X3.6516Y-4.6238
X3.6516Y-5.2559
X3.6516Y-2.3738
X3.6516Y-3.1238
X3.6516Y-3.8738
X3.6516Y-4.6238
X3.6516Y-5.2559
X3.75Y-2.3344
X3.75Y-2.3344
X3.75Y-2.5312
X3.75Y-3.0844
X3.75Y-3.0844
X3.75Y-3.2812
X3.75Y-3.8344
X3.75Y-3.8344
X3.75Y-4.0312
X3.75Y-4.5844
X3.75Y-4.5844
X3.75Y-4.7812
X3.75Y-5.3035
X3.8484Y-2.3541
X3.8484Y-3.1041
X3.8484Y-3.8541
X3.8484Y-4.6041
X3.8484Y-5.2559
X3.8484Y-5.2559
X3.8492Y-2.3427
X3.8492Y-3.0927
X3.8492Y-3.8427
X3.8492Y-4.5927
X3.85Y-2.3312
X3.85Y-2.3312
X3.85Y-3.0812
X3.85Y-3.0812
X3.85Y-3.8312
X3.85Y-3.8312
X3.85Y-4.5812
X3.85Y-4.5812
X3.8878Y-5.1579
X3.8878Y-5.1579
X3.9469Y-2.3816
X3.9469Y-3.1316
X3.9469Y-3.8816
X3.9469Y-4.6316
X3.9469Y-2.3816
X3.9469Y-3.1316
X3.9469Y-3.8816
X3.9469Y-4.6316
X3.95Y-2.5312
X3.95Y-3.2812
X3.95Y-4.0312
X3.95Y-4.7812
X3.9665Y-2.5312
X3.9665Y-3.2812
X3.9665Y-4.0312
X3.9665Y-4.7812
X4.2835Y-2.5312
X4.2835Y-3.2812
X4.2835Y-4.0312
X4.2835Y-4.7812
X4.2945Y-2.6966
X4.2945Y-3.4466
X4.2945Y-4.1966
X4.2945Y-4.9466
X4.3Y-2.5312
X4.3Y-3.2812
X4.3Y-4.0312
X4.3Y-4.7812
X4.35Y-2.4312
X4.35Y-3.1812
X4.35Y-3.9312
X4.35Y-4.6812
X4.3758Y-2.4025
X4.3758Y-3.1525
X4.3758Y-3.9025
X4.3758Y-4.6525
X4.4016Y-2.3738
X4.4016Y-3.1238
X4.4016Y-3.8738
X4.4016Y-4.6238
X4.4016Y-2.3738
X4.4016Y-3.1238
X4.4016Y-3.8738
X4.4016Y-4.6238
X4.5Y-2.3344
X4.5Y-2.3344
X4.5Y-2.5312
X4.5Y-3.0844
X4.5Y-3.0844
X4.5Y-3.2812
X4.5Y-3.8344
X4.5Y-3.8344
X4.5Y-4.0312
X4.5Y-4.5844
X4.5Y-4.5844
X4.5Y-4.7812
X4.5984Y-2.3541
X4.5984Y-3.1041
X4.5984Y-3.8541
X4.5984Y-4.6041
X4.5992Y-2.3427
X4.5992Y-3.0927
X4.5992Y-3.8427
X4.5992Y-4.5927
X4.6Y-2.3312
X4.6Y-2.3312
X4.6Y-3.0812
X4.6Y-3.0812
X4.6Y-3.8312
X4.6Y-3.8312
X4.6Y-4.5812
X4.6Y-4.5812
X4.6969Y-2.3816
X4.6969Y-3.1316
X4.6969Y-3.8816
X4.6969Y-4.6316
X4.6969Y-2.3816
X4.6969Y-3.1316
X4.6969Y-3.8816
X4.6969Y-4.6316
X4.7Y-2.5312
X4.7Y-3.2812
X4.7Y-4.0312
X4.7Y-4.7812
X4.7165Y-2.5312
X4.7165Y-3.2812
X4.7165Y-4.0312
X4.7165Y-4.7812
X4.9409Y-2.0906
X4.9409Y-5.315
T0
M30
