G04 #@! TF.GenerationSoftware,KiCad,Pcbnew,(5.1.2)-1*
G04 #@! TF.CreationDate,2019-05-28T21:20:31-05:00*
G04 #@! TF.ProjectId,Main_PCB_MXALPSCHOC,4d61696e-5f50-4434-925f-4d58414c5053,rev?*
G04 #@! TF.SameCoordinates,Original*
G04 #@! TF.FileFunction,Copper,L1,Top*
G04 #@! TF.FilePolarity,Positive*
%FSLAX46Y46*%
G04 Gerber Fmt 4.6, Leading zero omitted, Abs format (unit mm)*
G04 Created by KiCad (PCBNEW (5.1.2)-1) date 2019-05-28 21:20:31*
%MOMM*%
%LPD*%
G04 APERTURE LIST*
%ADD10C,2.000000*%
%ADD11C,2.250000*%
%ADD12C,1.752600*%
%ADD13C,2.100000*%
%ADD14C,1.750000*%
%ADD15C,1.198880*%
%ADD16C,1.699260*%
%ADD17C,1.750060*%
%ADD18C,2.199640*%
%ADD19C,3.987800*%
%ADD20C,0.899160*%
%ADD21C,0.990600*%
%ADD22C,1.092200*%
%ADD23C,1.300480*%
%ADD24C,1.470660*%
%ADD25C,2.250000*%
%ADD26C,0.250000*%
G04 APERTURE END LIST*
D10*
X95250000Y-116443750D03*
X100250000Y-117643750D03*
D11*
X92750000Y-117443750D03*
X92095000Y-118173750D03*
X97790000Y-116363750D03*
X97769770Y-116653730D03*
D10*
X114300000Y-116443750D03*
X119300000Y-117643750D03*
D11*
X111800000Y-117443750D03*
X111145000Y-118173750D03*
X116840000Y-116363750D03*
X116819770Y-116653730D03*
D10*
X114300000Y-59293750D03*
X119300000Y-60493750D03*
D11*
X111800000Y-60293750D03*
X111145000Y-61023750D03*
X116840000Y-59213750D03*
X116819770Y-59503730D03*
D10*
X76200000Y-97393750D03*
X81200000Y-98593750D03*
D11*
X73700000Y-98393750D03*
X73045000Y-99123750D03*
X78740000Y-97313750D03*
X78719770Y-97603730D03*
D10*
X95250000Y-59293750D03*
X100250000Y-60493750D03*
D11*
X92750000Y-60293750D03*
X92095000Y-61023750D03*
X97790000Y-59213750D03*
X97769770Y-59503730D03*
D10*
X95250000Y-97393750D03*
X100250000Y-98593750D03*
D11*
X92750000Y-98393750D03*
X92095000Y-99123750D03*
X97790000Y-97313750D03*
X97769770Y-97603730D03*
D10*
X76200000Y-78343750D03*
X81200000Y-79543750D03*
D11*
X73700000Y-79343750D03*
X73045000Y-80073750D03*
X78740000Y-78263750D03*
X78719770Y-78553730D03*
D10*
X95250000Y-78343750D03*
X100250000Y-79543750D03*
D11*
X92750000Y-79343750D03*
X92095000Y-80073750D03*
X97790000Y-78263750D03*
X97769770Y-78553730D03*
D10*
X114300000Y-78343750D03*
X119300000Y-79543750D03*
D11*
X111800000Y-79343750D03*
X111145000Y-80073750D03*
X116840000Y-78263750D03*
X116819770Y-78553730D03*
D10*
X114300000Y-97393750D03*
X119300000Y-98593750D03*
D11*
X111800000Y-98393750D03*
X111145000Y-99123750D03*
X116840000Y-97313750D03*
X116819770Y-97603730D03*
D10*
X76200000Y-116443750D03*
X81200000Y-117643750D03*
D11*
X73700000Y-117443750D03*
X73045000Y-118173750D03*
X78740000Y-116363750D03*
X78719770Y-116653730D03*
D10*
X76200000Y-59293750D03*
X81200000Y-60493750D03*
D11*
X73700000Y-60293750D03*
X73045000Y-61023750D03*
X78740000Y-59213750D03*
X78719770Y-59503730D03*
D10*
X61912500Y-93631250D03*
X61912500Y-101631250D03*
D12*
X47151400Y-61030000D03*
X47608600Y-63570000D03*
X47151400Y-66110000D03*
X47608600Y-68650000D03*
X47151400Y-71190000D03*
X47608600Y-73730000D03*
X47151400Y-76270000D03*
X47608600Y-78810000D03*
X47151400Y-81350000D03*
X47608600Y-83890000D03*
X47151400Y-86430000D03*
X62391400Y-88970000D03*
X62848600Y-86430000D03*
X62391400Y-83890000D03*
X62848600Y-81350000D03*
X62391400Y-78810000D03*
X62848600Y-76270000D03*
X62391400Y-73730000D03*
X62848600Y-71190000D03*
X62391400Y-68650000D03*
X62848600Y-66110000D03*
X62391400Y-63570000D03*
X47608600Y-88970000D03*
X62848600Y-61030000D03*
D13*
X91740000Y-131010000D03*
D14*
X92750000Y-133500000D03*
X97750000Y-133500000D03*
D13*
X98750000Y-131010000D03*
D10*
X47625000Y-101631250D03*
X47625000Y-93631250D03*
X52387500Y-93631250D03*
X52387500Y-101631250D03*
X57150000Y-101631250D03*
X57150000Y-93631250D03*
X47625000Y-105537500D03*
X47625000Y-113537500D03*
X52387500Y-113537500D03*
X52387500Y-105537500D03*
X57150000Y-105537500D03*
X57150000Y-113537500D03*
X61912500Y-113537500D03*
X61912500Y-105537500D03*
X47625000Y-125443750D03*
X47625000Y-117443750D03*
X52387500Y-117443750D03*
X52387500Y-125443750D03*
X57150000Y-125443750D03*
X57150000Y-117443750D03*
X61912500Y-117443750D03*
X61912500Y-125443750D03*
D15*
X90030300Y-87543640D03*
X90030300Y-68493640D03*
X90030300Y-125643640D03*
X70980300Y-68493640D03*
X109080300Y-125643640D03*
X109080300Y-106593640D03*
X70980300Y-125643640D03*
X90030300Y-106593640D03*
X109080300Y-68493640D03*
X95250000Y-134708900D03*
X70980300Y-87543640D03*
X70980300Y-106593640D03*
X109080300Y-87543640D03*
D16*
X89750900Y-83342480D03*
X100749100Y-83342480D03*
X89750900Y-64292480D03*
X100749100Y-64292480D03*
X70700900Y-83342480D03*
X81699100Y-83342480D03*
X70700900Y-102392480D03*
X81699100Y-102392480D03*
X108800900Y-83342480D03*
X119799100Y-83342480D03*
X89750900Y-121442480D03*
X100749100Y-121442480D03*
X70700900Y-64292480D03*
X81699100Y-64292480D03*
X108800900Y-121442480D03*
X119799100Y-121442480D03*
X108800900Y-102392480D03*
X119799100Y-102392480D03*
X70700900Y-121442480D03*
X81699100Y-121442480D03*
X89750900Y-102392480D03*
X100749100Y-102392480D03*
X108800900Y-64292480D03*
X119799100Y-64292480D03*
D17*
X109220000Y-64292480D03*
X119380000Y-64292480D03*
X90170000Y-83342480D03*
X100330000Y-83342480D03*
X90170000Y-64292480D03*
X100330000Y-64292480D03*
X71120000Y-83342480D03*
X81280000Y-83342480D03*
X71120000Y-102392480D03*
X81280000Y-102392480D03*
X109220000Y-83342480D03*
X119380000Y-83342480D03*
X90170000Y-121442480D03*
X100330000Y-121442480D03*
X71120000Y-64292480D03*
X81280000Y-64292480D03*
X109220000Y-121442480D03*
X119380000Y-121442480D03*
X109220000Y-102392480D03*
X119380000Y-102392480D03*
X71120000Y-121442480D03*
X81280000Y-121442480D03*
X90170000Y-102392480D03*
X100330000Y-102392480D03*
D18*
X125498860Y-53101240D03*
X125498860Y-135001000D03*
X43599100Y-53101240D03*
X43599100Y-135001000D03*
D19*
X95250000Y-102392480D03*
X114300000Y-64292480D03*
X95250000Y-83342480D03*
X95250000Y-64292480D03*
X76200000Y-83342480D03*
X76200000Y-102392480D03*
X114300000Y-83342480D03*
X95250000Y-121442480D03*
X76200000Y-64292480D03*
X114300000Y-121442480D03*
X114300000Y-102392480D03*
X76200000Y-121442480D03*
D20*
X47625000Y-101630480D03*
X47625000Y-125442980D03*
X61912500Y-105537000D03*
X52387500Y-117444520D03*
X52387500Y-125442980D03*
X47625000Y-105537000D03*
X47625000Y-113538000D03*
X52387500Y-105537000D03*
X52387500Y-113538000D03*
X57150000Y-105537000D03*
X57150000Y-113538000D03*
X47625000Y-93632020D03*
X47625000Y-117444520D03*
X61912500Y-93632020D03*
X61912500Y-101630480D03*
X61912500Y-113538000D03*
X52387500Y-93632020D03*
X52387500Y-101630480D03*
X57150000Y-93632020D03*
X57150000Y-101630480D03*
X61912500Y-117444520D03*
X61912500Y-125442980D03*
X57150000Y-117444520D03*
X57150000Y-125442980D03*
D21*
X92750640Y-133499860D03*
X97749360Y-133499860D03*
D22*
X47152560Y-61031120D03*
X47152560Y-66111120D03*
X47152560Y-71191120D03*
X47152560Y-76271120D03*
X47152560Y-81351120D03*
X47152560Y-86431120D03*
X47609760Y-63571120D03*
X47609760Y-68651120D03*
X47609760Y-73731120D03*
X47609760Y-78811120D03*
X47609760Y-83891120D03*
X47609760Y-88971120D03*
X62392560Y-63571120D03*
X62392560Y-68651120D03*
X62392560Y-73731120D03*
X62392560Y-78811120D03*
X62392560Y-83891120D03*
X62392560Y-88971120D03*
X62849760Y-61031120D03*
X62849760Y-66111120D03*
X62849760Y-71191120D03*
X62849760Y-76271120D03*
X62849760Y-81351120D03*
X62849760Y-86431120D03*
D15*
X95250000Y-78343760D03*
X100251260Y-79542640D03*
X95250000Y-59293760D03*
X100251260Y-60492640D03*
X76200000Y-78343760D03*
X81201260Y-79542640D03*
X76200000Y-97393760D03*
X81201260Y-98592640D03*
X114300000Y-78343760D03*
X119301260Y-79542640D03*
X95250000Y-116443760D03*
X100251260Y-117642640D03*
X76200000Y-59293760D03*
X81201260Y-60492640D03*
X114300000Y-116443760D03*
X119301260Y-117642640D03*
X114300000Y-97393760D03*
X119301260Y-98592640D03*
X76200000Y-116443760D03*
X81201260Y-117642640D03*
X95250000Y-97393760D03*
X100251260Y-98592640D03*
X114300000Y-59293760D03*
X119301260Y-60492640D03*
D23*
X91739720Y-131010660D03*
X98750120Y-131010660D03*
D24*
X91440000Y-61752480D03*
X92750640Y-60294520D03*
X97749360Y-59794140D03*
X97790000Y-59212480D03*
X72390000Y-80802480D03*
X73700640Y-79344520D03*
X78699360Y-78844140D03*
X78740000Y-78262480D03*
X72390000Y-99852480D03*
X73700640Y-98394520D03*
X78699360Y-97894140D03*
X78740000Y-97312480D03*
X110490000Y-80802480D03*
X111800640Y-79344520D03*
X116799360Y-78844140D03*
X116840000Y-78262480D03*
X91440000Y-118902480D03*
X92750640Y-117444520D03*
X97749360Y-116944140D03*
X97790000Y-116362480D03*
X72390000Y-61752480D03*
X73700640Y-60294520D03*
X78699360Y-59794140D03*
X78740000Y-59212480D03*
X110490000Y-118902480D03*
X111800640Y-117444520D03*
X116799360Y-116944140D03*
X116840000Y-116362480D03*
X110490000Y-99852480D03*
X111800640Y-98394520D03*
X116799360Y-97894140D03*
X116840000Y-97312480D03*
X72390000Y-118902480D03*
X73700640Y-117444520D03*
X78699360Y-116944140D03*
X78740000Y-116362480D03*
X91440000Y-99852480D03*
X92750640Y-98394520D03*
X97749360Y-97894140D03*
X97790000Y-97312480D03*
X110490000Y-61752480D03*
X111800640Y-60294520D03*
X116799360Y-59794140D03*
X116840000Y-59212480D03*
X91440000Y-80802480D03*
X92750640Y-79344520D03*
X97749360Y-78844140D03*
X97790000Y-78262480D03*
D25*
X91440000Y-118903750D02*
X92749990Y-117443740D01*
X97750000Y-116943750D02*
X97789540Y-116363720D01*
X110490000Y-118903750D02*
X111799990Y-117443740D01*
X116800000Y-116943750D02*
X116839540Y-116363720D01*
X110490000Y-61753750D02*
X111799990Y-60293740D01*
X116800000Y-59793750D02*
X116839540Y-59213720D01*
X72390000Y-99853750D02*
X73699990Y-98393740D01*
X78700000Y-97893750D02*
X78739540Y-97313720D01*
X91440000Y-61753750D02*
X92749990Y-60293740D01*
X97750000Y-59793750D02*
X97789540Y-59213720D01*
X91440000Y-99853750D02*
X92749990Y-98393740D01*
X97750000Y-97893750D02*
X97789540Y-97313720D01*
X72390000Y-80803750D02*
X73699990Y-79343740D01*
X78700000Y-78843750D02*
X78739540Y-78263720D01*
X91440000Y-80803750D02*
X92749990Y-79343740D01*
X97750000Y-78843750D02*
X97789540Y-78263720D01*
X110490000Y-80803750D02*
X111799990Y-79343740D01*
X116800000Y-78843750D02*
X116839540Y-78263720D01*
X110490000Y-99853750D02*
X111799990Y-98393740D01*
X116800000Y-97893750D02*
X116839540Y-97313720D01*
X72390000Y-118903750D02*
X73699990Y-117443740D01*
X78700000Y-116943750D02*
X78739540Y-116363720D01*
X72390000Y-61753750D02*
X73699990Y-60293740D01*
X78700000Y-59793750D02*
X78739540Y-59213720D01*
D26*
X47151400Y-76270000D02*
X44500000Y-78921400D01*
X47625000Y-100381250D02*
X47625000Y-101631250D01*
X44500000Y-97256250D02*
X47625000Y-100381250D01*
X44500000Y-78921400D02*
X44500000Y-97256250D01*
X48875000Y-101631250D02*
X52387500Y-101631250D01*
X47625000Y-101631250D02*
X48875000Y-101631250D01*
X52387500Y-101631250D02*
X57150000Y-101631250D01*
X45690000Y-78810000D02*
X45000000Y-79500000D01*
X47608600Y-78810000D02*
X45690000Y-78810000D01*
X45000000Y-79500000D02*
X45000000Y-96500000D01*
X45000000Y-96500000D02*
X48500000Y-100000000D01*
X60662500Y-101631250D02*
X61912500Y-101631250D01*
X59031250Y-100000000D02*
X60662500Y-101631250D01*
X48500000Y-100000000D02*
X59031250Y-100000000D01*
X52387500Y-113537500D02*
X47625000Y-113537500D01*
X50000000Y-109112500D02*
X52387500Y-111500000D01*
X52387500Y-113537500D02*
X52387500Y-111500000D01*
X60662500Y-101631250D02*
X58793750Y-103500000D01*
X58793750Y-103500000D02*
X51000000Y-103500000D01*
X51000000Y-103500000D02*
X50000000Y-104500000D01*
X50000000Y-104500000D02*
X50000000Y-109112500D01*
X55900000Y-113537500D02*
X57150000Y-113537500D01*
X47625000Y-125443750D02*
X47625000Y-124193750D01*
X47625000Y-124193750D02*
X46000000Y-122568750D01*
X46000000Y-122568750D02*
X46000000Y-116500000D01*
X46000000Y-116500000D02*
X47500000Y-115000000D01*
X47500000Y-115000000D02*
X54437500Y-115000000D01*
X54437500Y-115000000D02*
X55900000Y-113537500D01*
X57150000Y-113537500D02*
X61912500Y-113537500D01*
X47728030Y-75068700D02*
X49000000Y-76340670D01*
X46574780Y-75068700D02*
X47728030Y-75068700D01*
X44049990Y-77593480D02*
X46574780Y-75068700D01*
X46000000Y-116500000D02*
X44049990Y-114549990D01*
X44049990Y-114549990D02*
X44049990Y-77593480D01*
X49000000Y-79501400D02*
X47151400Y-81350000D01*
X49000000Y-76340670D02*
X49000000Y-79501400D01*
X60662500Y-125443750D02*
X57150000Y-125443750D01*
X61912500Y-125443750D02*
X60662500Y-125443750D01*
X52387500Y-125443750D02*
X57150000Y-125443750D01*
X61912500Y-124193750D02*
X61912500Y-125443750D01*
X65500000Y-120606250D02*
X61912500Y-124193750D01*
X67393750Y-120606250D02*
X65500000Y-120606250D01*
X69000000Y-100000000D02*
X69000000Y-119000000D01*
X69000000Y-119000000D02*
X67393750Y-120606250D01*
X46110000Y-83890000D02*
X45500000Y-84500000D01*
X45500000Y-84500000D02*
X45500000Y-95500000D01*
X47608600Y-83890000D02*
X46110000Y-83890000D01*
X45500000Y-95500000D02*
X49000000Y-99000000D01*
X49000000Y-99000000D02*
X68000000Y-99000000D01*
X68000000Y-99000000D02*
X69000000Y-100000000D01*
X109984000Y-80803750D02*
X110490000Y-80803750D01*
X57000000Y-105687500D02*
X57150000Y-105537500D01*
X63500000Y-110000000D02*
X61612500Y-110000000D01*
X61612500Y-110000000D02*
X57150000Y-105537500D01*
X64000000Y-110500000D02*
X63500000Y-110000000D01*
X50500000Y-124500000D02*
X51000000Y-124000000D01*
X64000000Y-121000000D02*
X64000000Y-110500000D01*
X65500000Y-127000000D02*
X51000000Y-127000000D01*
X51000000Y-127000000D02*
X50500000Y-126500000D01*
X50500000Y-126500000D02*
X50500000Y-124500000D01*
X51000000Y-124000000D02*
X61000000Y-124000000D01*
X61000000Y-124000000D02*
X64000000Y-121000000D01*
X67250000Y-121500000D02*
X67250000Y-125250000D01*
X69450010Y-119299990D02*
X67250000Y-121500000D01*
X67250000Y-125250000D02*
X65500000Y-127000000D01*
X71000000Y-98500000D02*
X69450010Y-100049990D01*
X72390000Y-99853750D02*
X71036250Y-98500000D01*
X71036250Y-98500000D02*
X71000000Y-98500000D01*
X69450010Y-100049990D02*
X69450010Y-119299990D01*
X84543750Y-78543750D02*
X85000000Y-79000000D01*
X82200000Y-78543750D02*
X84543750Y-78543750D01*
X81200000Y-79543750D02*
X82200000Y-78543750D01*
X84593750Y-97593750D02*
X85000000Y-98000000D01*
X82200000Y-97593750D02*
X84593750Y-97593750D01*
X81200000Y-98593750D02*
X82200000Y-97593750D01*
X85000000Y-115000000D02*
X85000000Y-98000000D01*
X85000000Y-98000000D02*
X85000000Y-79000000D01*
X85000000Y-79000000D02*
X85000000Y-61000000D01*
X84493750Y-60493750D02*
X81200000Y-60493750D01*
X85000000Y-61000000D02*
X84493750Y-60493750D01*
X82200000Y-116643750D02*
X83356250Y-116643750D01*
X81200000Y-117643750D02*
X82200000Y-116643750D01*
X83356250Y-116643750D02*
X85000000Y-115000000D01*
X103493750Y-60493750D02*
X100250000Y-60493750D01*
X104000000Y-61000000D02*
X103493750Y-60493750D01*
X103593750Y-97593750D02*
X104000000Y-98000000D01*
X101250000Y-97593750D02*
X103593750Y-97593750D01*
X100250000Y-98593750D02*
X101250000Y-97593750D01*
X103543750Y-78543750D02*
X104000000Y-79000000D01*
X101250000Y-78543750D02*
X103543750Y-78543750D01*
X100250000Y-79543750D02*
X101250000Y-78543750D01*
X104000000Y-98000000D02*
X104000000Y-79000000D01*
X104000000Y-79000000D02*
X104000000Y-61000000D01*
X101250000Y-116643750D02*
X102356250Y-116643750D01*
X100250000Y-117643750D02*
X101250000Y-116643750D01*
X102356250Y-116643750D02*
X104000000Y-115000000D01*
X104000000Y-115000000D02*
X104000000Y-98000000D01*
X113626250Y-56000000D02*
X116840000Y-59213750D01*
X68000000Y-56000000D02*
X113626250Y-56000000D01*
X67000000Y-57000000D02*
X68000000Y-56000000D01*
X67000000Y-83000000D02*
X67000000Y-57000000D01*
X62391400Y-83890000D02*
X66110000Y-83890000D01*
X66110000Y-83890000D02*
X67000000Y-83000000D01*
X61500000Y-66110000D02*
X62848600Y-66110000D01*
X61110000Y-66500000D02*
X61500000Y-66110000D01*
X56000000Y-66500000D02*
X61110000Y-66500000D01*
X49000000Y-59500000D02*
X56000000Y-66500000D01*
X46000000Y-59500000D02*
X49000000Y-59500000D01*
X45500000Y-74000000D02*
X45500000Y-60000000D01*
X97750000Y-133500000D02*
X100500000Y-133500000D01*
X100500000Y-133500000D02*
X101000000Y-133000000D01*
X101000000Y-133000000D02*
X101000000Y-128000000D01*
X43500000Y-76000000D02*
X45500000Y-74000000D01*
X101000000Y-128000000D02*
X100500000Y-127500000D01*
X100500000Y-127500000D02*
X45000000Y-127500000D01*
X45500000Y-60000000D02*
X46000000Y-59500000D01*
X43500000Y-126000000D02*
X43500000Y-76000000D01*
X45000000Y-127500000D02*
X43500000Y-126000000D01*
M02*
